<?xml version="1.0" standalone="no"?><!DOCTYPE svg PUBLIC "-//W3C//DTD SVG 1.1//EN" "http://www.w3.org/Graphics/SVG/1.1/DTD/svg11.dtd">
<svg xmlns="http://www.w3.org/2000/svg" width="1078" height="550"><defs><pattern id="a" width="5" height="5" patternUnits="userSpaceOnUse"><circle cx="3" cy="3" r="1" fill="#AAA" stroke="#DDD"/></pattern></defs><path d="M325 237v-1 1zm232-117h-1 1zm147 41v-1l-1-1 1-1v-2h-1v-1h-2l1-1h1-1v-1h-2v-2l1-1h2v1h2v-1h1v-1h-1v-1h-1v-2h-3v1l-1 1h1l-1 1h1-1v-1l-1-1v-1h1v-2h-3v-1h-1v-1h-1v-1l-1-1h-1v-1h3v-1h-1v-1h1v-1h4l1 1 1-1h-2l1-1v-3h-1l-1-1v1h-2v-1h-2l-1 1h-2v1h-3v1h-1v1h-3v1h-1v-1 2h-1v1h-1v1l1 1h1v2-1h1l-1 1v2h1v1l1 1h1v1h1v1l1 1v1h1v1h3v1h-3v3l-1 1v-1 1h-1v3h1v1h2l1 1h1v1l2 1h3l4-1h2-1v1h1v-2zm21 23l1-1-1 1zm55-6l-1-1zm3 3zm-2-1h1zm0-5v1zm0-2v1-1zm-4-6zM-11 64h2v1h2v1h3-2v-1 1h3-1v1l1-1v1h1l5 1v1h1-1 2l-1 1h1v2h2v1-1h1-1v-2H6h4-1v1h1v-1h1v1l1-1h-2 4l1 1 1 1h2v1-1h1v1h1-1l-1 1h-3 1v1h-4v-1h-1l1 1h1l-1 1h-1 2-1v1h-2 1v1h1-1l-1 1-1-1H7l-1-1H2v-1l-1-1h-8l1-1h-2v-1h1v-1 1h-1v-1h-1v1h-1v1h1v1h-1v1h-1V64zm1100 12h-1v1h-2l-1 1h-1v-1h-3l-1-1h-2 2v1h1-9 6-1v1l1-1 1 1 1-1h1v1l1 1h1v-1h1v1l1 1v1h-1 2v1h1v1h1l-1 1h-1v1-1h-5v-1h-1v1h-2l-2 1h-2l-1 1h-2l-1 1v-1l-1 1h-2v1h-1l-1 1h-2l-2 1h-1v2h-1l-1-1-1-1h-7l-1 1-1 1h-1v-2l-1 1h-3v1h-1v-1h-1v1h-1 1-3v2h-1v1h-1l-1 1h-1v2h1v1-1h3v1h-1l-1 1v1l1 1h1v1l-1 1-1-1h1v-1h-1l-1 1h1-2v1l-1 1v2h1v1h-4l-1 1h-1v1l-1 1h1v2l-1-1-2 1h-2 1l-1 1v2l-1 1h-1v1h-1l-1 1h-1v-1h-1v-3l-1-1v-3l-1-1v-3l-1-1 1-1v-1l1-2v-1h1l1-1 1-1h-1v-1h5v-1h1l1-1h1l1-1v-1h2l1-1h1l1-1 1-1h1v-1h2l1-1h2v-1h1v-3h1v-1h3-1l-1-1h-1l-3 1v1h-1v1h1v1h-1v-1h-1v1h-1l-4 2h-2v1h-1v-1h1v-1h-1v1h-1l1-1v-1h1v-1h-9l-1 1h-1v1h-1l-1 1h-1v1h-1l-1 1h-2v1h-1v1h3v1h-6l-1 1h-5v-1h3-1l-1-1h-4l-2-1h-1l-1 1h1-2v1h1-1l-1-1-1 1h-3l-1-1h-1v1h-2v-1l-4 1-1-1-1 1h-4l-1 1-1 1h-1l-1 1h-1l-1 1-1 1h-1l-1 1h-1v1h-1l-2 1v1h-1l-1 1h-1v1h-2l-1 1h-1l-1 1h-1v1h5v3-1h1v1-2h2l-1 1h1l-1 1h-1 3l1-1v1h-1 2v-2h3l1 1h1v1h1l1 1h1v1h-2 1l1 1-1 1h1v2h-1l-1 1v1l-1 1v2h1-1v3l-1 1v1l-1 1h-1v1h-1v1l-2 1v2h-1v1l-1 1-1 1h-1l-1 1-1 1-1 1h-1l-1 2-1 1h-1v1h-2l-1 1h-2v1-1h-3v-1h-2v1h-1v1h-2 1l-1 1h-1l-1 1-1 1v1h1-1v1l-1 1h-1v1h-1l-1 1h-2v2h-1 1v1h2v1l1 1 1 1v1l1 1v1l1 1h-1l1 1h-1v1h1v1l-1 1-1 1h-4v1h-1 1-1v1-1h-1v1h-2v-1h1-1 1-1v-2h1v-1h-1 1v-3h-2l1-1h2-1v-2l-1-1-1 1v-1h-1l-1 1v-1h-1 1-2v-1h1v-1h2-1l-1-1 1-1v-1h-2v-1h-4v1h-2l-1 1h-1v1h-2l-1 1v-1h1l1-1h-1v-2h1l1-1 1-1h-1l-1-1h-2l-1 1-1 1-2 1h-1v1h-1v1h-2l-1 1v-1h-1l-1 1v1l1 1h1l1 1h2v1h-1v1h1v1h1l1-1 1-1h1-1 1l1-1 1 1h1l1 1h1v-1 1h2l-1 1h-2l-1 1h-2v2h-1v-1h-1v1h1-1v1h-1l-1 1v1h-1v1h1l1 1h1l1 1v1l1 1v2h1l1 1v1h1v1h-2l-1-1h-2v1l1-1h1v1h1l1 1h1v2h-1l-1 1h-3v1h1v-1l1 1 1-1h1v1h1l1 1h-1v1h-1 1v-1l1 1v1h-2 1v1h-1 1-1v1h1v1l-1-1v1l-1-1v1h-1v2h-1 1l-1 1-1 1v1h-1v-1h-1 1v2h-2v1h2-1v1h1-2v1h-1v2h-3l1 1h-1v1h-1v1h-2v1h-1 1-1v1h-3v1l-1-1-1 1-1-1v1h-1v1h-1v-1l-1-1v-1 1h-1 1v2h-1v1-1h-1v1h-2v1-1h-1v1h-3v1h-2v2h1v1h-2v-1h-1 1-1v-2h1v-1h-2v1l-1-1h-1v-1h-1l1 1h-3v1h-1v1h-2v2h-1l-1 1-1 1v3h1v1h1v2l1 1h1v1h1v1h1v1h1l1 1v1h1v1h1v3h1v6-1 3-1 1l-1 1-1 1h-1v1h-1l-1 1h-2v-1 1h-1v1h-1 1v1h-1l-1-1 1 1h1v1h-1v-1h-1l-1-1 1 1v1h1-1l-2 1v1h-1v1h-1l1-1h-1v-2l1-1v-1h-1l-1-1h-1l-1-1v1h-1v-1h1v-1h-1v1h-1v-3h-1v-1h-1l-1-1h-1v-1h-3v-2h-2v2h-1l1 1v1h-1v1l-1 1v2l-1 1v4h2v2h1v1l1 2v1-1h-1 1v-1h-1v1l1 1h1v1h2l1 1 1 1h1v1l1 1h1v1l1 1v7h1l1 1v2h1v1h-1v-1 1l-1-1v1h-1v-1h-2v-1h-1l-1-1h-1v-1h-1v-2l-1-1-1-1v-1h-1v-5l-1-1v-1l-1-1v-1h-1v-1h-1v-1h-1v-1h-2v-2l1-1v-2l1-1h-1v-2l1-1v-2h-1l1-1h-1 1-1v-1h1-1v-3l-1-1v-1 1-1l-1-1v-1h1-1v-4h-1v-1l1-1h-1v1l-1-1v-2h-1v2h-1v1h-1v-1 1h-1v1h-1v1h-1v-1 1h-1v-1h-1v-1 1h-1v-3h1v-4l-1-1v-1h-1v-1 1h-1v-1h1v-1h-1v-1h-2v-2h-1v1-1h-1v-1l-1-1v-3h-1v-2h-1v1h-1l-1-1v-2h-1v1h1l-1 1h1-1v1h1-1 1v1l-1 1h-1l1-1h-1v1-2 1l-1 1-1-1v2l-1-1v-1 2h-1v-2 2h-2v-2 1l-1 1h-2v1h-1v1h1v1h-1v1h-1v1h-1l-1 1h-1v-1l-1 1h1-1l-1 2-1 1-1 1-1 1h-1v1h-1v1h-2v1h-1l1 1h-1v1h-3v1l-1 1v-1h-1v1h-1v7-1 4l-1 1v6h-1v-1 1h-1l-1 1v1l1 1h1-3l-1 1v1l-1 1h-3v-1l-1-1v-1h-1v-2 1h1l-1-1v-2l-1-1v-1l-1-1v-1h-1v-1l-1-1v-2h-1v-3l-1-1v-1l-1-1v-1l-1-1h1-1v-1h-1v-5l-1-1v-4 1h-1v-1h1-1v-2l1-2v-1l-1-1v-1h1-1v-2h-1v1h-1 1v1l-1 1-1 1h-1l-1 1h-1l-1-1h-1v-1l-1-1h-1v-1h-1v-2 1h2v-1h1l1-1v-1 1h-5v-1h-1v-1l1-1h-1v1h-1v-1h-2v-1l-1-2h-1v-1l-1-1h-1 1-2v1l-1-1-1 1h-3v-1 1h-1v-1l-1 1h-9v-1 1l-2-1v1-1h-6v-1 1l-1-1h-1v-1l-1-1v-2h-3l-1 1h-1l-1 1h-1l-1-1h-3v-1h-2v-1h-1l-1-1h-2v-1l-1-1v-1h-1v-2h-1v-1h-1v-1h-2l-1-1h-1v1h-1v1-1h-1v2h-1 1v2h1v1l1 1v2h1l1 1 1 1h1v1-1 3l1 1v1l1 1v-2l1-1v-1h1v1h1l-1 1 1 1v1h-1v2h1v1h2v-1h6l1-1v-1l1-1h1v-1h1l1-1v-1h1v-1 5h1v2h1l1 1h2l1 1h2v1l1 1 1 1h1v1l-1 1-1 1v1h-1l-1 1v2h-1v-1l-1 1v1h-1v2h1v1h-3v1h-1v1l-1 1h-2l-1 1v2h-5v1h-2l-1 1h-1v1h-1l1 1h-1v1h-2l-1 1h-2l-1 1h-2l-1 1-1 1h-3v1h-2v1h-4l-1 1h-1v1h-5l-1-2v-3h-1v-2l-1-1h1v-4h-1v-1l-1-1-1-1v-1h-1v-1l-1-1v-1l-1-2-1-1-2-1h-1v-1l-1-1-1-1h1v-1h-1v-4l-1-1v-1l-1-1-1-1h-1l-1-1v-2l-1-1v-1h-1v-1l-1-1-1-1v-1h-1v-1l-1-1-1-1h-1v-2l1-2h-1v2l-1 1v2h-1l-1-1-1-1-1-1v-1h-1v-3l-1 1v1h1v3h1v1h1v1h1v2h1v2l1 1 1 1v2l2 2v1h1v1h-1l1 1v2h1v1h1v1h2v3h1v1h-1 1v6l1 1h1v1h1l1 1 1 2v1l1 1v3l1 1v1h1v-1 1h2v1h2l1 1v1l2 1v1l1 1h1v1h1v1l1 1h-1v1h-1l-1 1h3v1l1 1 1 1h2l2-1h5v-1h4v-1h1v1h1l1-1h2l1-1h1v-1l1 1h1l-1 1v3h1-1v1l-1 1v2l-1 1v1l-1 1-1 1v1l-1 1v1h-1v2l-1 2-2 2v1l-2 2-2 2-2 2-1 1-3 1-2 2v1h-1l-1 1-2 3h-1v1h-1v1h-1v1l-1 1-1 1h-1v1l-1 1h-1v2h-1v2h-1v2h-1v1l-1 1v4h1v1h1v1h-1v2h1l-1 1v2h1v3h1l-1 1h2v1h1v2l-1 1h1v9h1v1l-1 1v1l-1 1v1l-1 1-1 1h-1l-1 1h-2v1h-1l-1 1h-1l-1 1-1 1v1h-1v1h-1l-1 1-1 1-1 1h-1v-1 3h1v2l1 1v3-1h1l-1 1v1h1l-1 1v2h1l-1 1v1h-1l-1 1-3 1h-1l-1 1h-1v2h1l-1 2v2l-1 2v1l-1 1h-1l-1 2h-1v1l-1 1v1l-1 1v1l-1 1h-1l-1 1-1 1-1 1-1 1h-1l-1 1-1 1h-1l-2 1h-3v1h-10l-1 1h-5l-1 1h-2v-1h-1v-1h-2v1-3h-1v-2h1v-3l-1-1-1-1-1-2v-1l-1-2-1-1-1-1v-1l-1-1-1-1-1-1v-1l-1-1v-3h-1v-4l-1-1v-6l-1-1-1-1-1-2v-1l-1-1v-1l-2-3v-1h-1v-1l-1-1v-7h1v-1l1-2v-4l1-1 1-1 1-1h1v-6h-1v-2h-1v-3 1l1-1v-1l-1-2-1-2v-1l-1-1v-2h2-3v-3h-1v-1l-1-1-1-1-1-1v-1h-1v-1l-1-1h-1 1-1v-1h-1v-1h-1 1-1v-2 1h1-1l1-1h-1l-1-1v-1h1v-1l1-1h-1v-1h1v1h1l1-1h-2l-1-1h1v-3h1v-6h-1v-1h1-1 1-2v-1h-1v-1h-1 1-1v-1 1-1h-1v1h-3l-1 1v-1 1h-1v-1 1h-1v-1 1h-1v-1h-1v-1l-1-1h1-1 1v-1h-1 1-1v-1h-1l-1-1-1-1h-3l-2 1h-4l-1 1h-2l-1 1h-1v1h-2l-2 1h-4v-1h-1 1-5 2-4 1-2l-1 1h-2l-1 1h-1l-1 1-1-1h-1l-3-1-1-1v-1l-2-2h-2v-1h-2v-1l-1-1h-2v-2h-1v-1h-1l-1-1h2-1v-1h-1v-2h-1v-1h-1v-1h-1l-1-1v-2l-1 1v-1h-1 1-1v-1h1v-1h-1v1-1h1v-1 1h-3v-1 1l-1-1-1-1v-1l1 1v-1h-1v1-3h4-4v-2h-1v-2h-2 1l1-1 1-1v-3h1v-3l1-1v-3l-1-1v-5h-1v-1h-1v-1 1-3l1-1h1v-2h1l-1-1h1v-1l1-1h-1v1-1h1v-1l2-1v-1h1v-3h1v-1l1-1h1l1-1v-2h1v-1h1l1-1h1l2-1 1-1h1l1-1 1-1v-1h1v-1l1-1-1-1v-3l1-1 1-1v-1l1-1h1v-1h1l2-1h1l1-1 2-2 1-3h1v-1h1v2h2l1 1 1-1h3v1h3l1-1h1l1-1 2-1v1h1v-1h1l1-1h1l1-1h7l1-1h3v1h2l2-1h8l1-1h2v1-1h1v1h1l-1 1h1v-1h2v1h-1v1h-1v1l1 1h1v1l-1 1v1h-1l-1 1v2h2v1-1h1v1l1 1v-1 1h1l2 1h1l1-1h1v1h2l1 1h3v2l1 1h1l1 1h4l1 1h1l1 1h1v1l1-1h1l1-1v-1h1l-1-1v-2l1-1 1-1h2l1-1h2v1h3v2h5v1h1v1h1l1-1 2 1h2l1 1h4l1 1 1-1h1l1-1h2-1 2v-1l1 1h2-1v1h2l-1-1h1v1h5v-1h1v-1h1v-1l1-2v-1l1-1 1-2v-1h1v-3l-1-1 1-1-1-1h1v-1h1l-1-1-1 1h-4l-1 1h-1l-1 1h-3v-1h-1v-1h-2l-1-1h-1l-1 1v1h-2v1l-1-1h-1v-1h-5 1l1-1h-3 1v-1h-1v-2h-1v-1h-2 1v-1 1h2-1v-1l1-1h-1v-2h-2v-1l1-1h2v-1 1h2v-1h1-1v1h4v-1h-1 3v-1h-2v-1h7l2-1 1-1h7l1-1v1h1l1 1h2v1h4l1 1h3l1-1 2 1h1l1-1h2l1-1 1-1-1-1v-2h-2v-1h-2l-1-1-1-1h-1l-2-1-1-1-1-1-1 1v-1h-1l-1-1h-1 1l-1-1h1v1h1l1-1 1-1v-1 1l1-1h1-1l-1-1-1-1 1 1 1-1h1-1 2l1-1h-5l-1 1h-4l-1 1h-1v1h-1 1v-1l-1 1h-1 1v1l1 1v1h1v-1h3v1h-4v1h-3v1h-3v-1h1v-1h-2v-1h-2 1l1-1h2v-1h-6v-1h1-2 4-2v-2h-1l1 1h-1v1-1h-1v1h-2v1h-1l-1 1h-2v1h1v2h-3v3h-1v1h-1v1h-1v2h-1l1 1v1h1v1h1l1 1h1v1h-3v-1 1h-2l-1 1h-1l-1 1h-1v1-1h1v-1h1-2l-1-1h-5v1l-1-1v2h1-2 1v1l-1-1h-1 1v1h-1v-1h-1v-1h-1v2h1v1h1v2-1h-1v1h-1 1v1h2v1h1v1h1v1h-1v-1h-3 1v1h1v1h-1l-1-1h-1l1 1v1l1 1h-1 1v1h-1v-1h-1v1l-1-1v-1h-1v1l-1-1v-2h-1v-2h3l1 1h2v-1h-6v-1 1l-1-1-1-1h2-2v-1h-1v-1h-1v-1l-1-1h-1v-3h1-1v-1h1v-1h-1l-1-1h-1v-1h-2l-1-1h-2 2l-1-1h-1v-1h-3l-1-1h-1l-1-1h1v-1h-1v-1h-1 1l-1-1h-1v-1 1h-1v1h-1v-1l-1-1h1v-1h-2v1h-3v1h1v1h-1l1 1v1l1 1 2 1h1v1l1 1v1l1 1 1 1h4v1l2 1 1 1h1l2 1 1 1v1h-1v-1h-2v-1h-1l-1 1v1l-1 1h2v2h-1v2h-1l-1 1h-1v-1l1-1 1-1h-1v-1l-1-1v-1h-1l-1-1v-1h-2v-1h-1l-1-1h-2l-1-1-2-1-1-1h-1v-1h-1l-1-1h-1v-2l-1-1v-1h-3l-1-1h-1l-1 1v1h-3v1h-1l-1 1h-4v-1h-4l-2 1-1 1v1h1v2h-1l-2 1v1h-3l-1 1h-1l1 1h-1l-1 1h-1v1l-1 1v2h1l1 1h-1l-1 1h-1v2h-1 1-2l-1 1-1 1v1h-1v-1l-1 1h-7l-1 1v1h-2v-1h-1v-1h-1l1-1h-1l-1-1h-2l-1 1h-3v-4h1l-1-1h-1v1-1l1-1h-1 1-1v1h-1v-2h1v-2l1-1v-2h1v-1h-1v-4h-1l1-1h-1v-1h2v-1h1l1-1h1l1 1h14l1 1h1v-1h1l1-2v-1l1-1h-1v1-3h1l1 1v-1h-1l-1-1h1v-1l-1-1h-1l-1-1v-1h-1 2l-1-1-1 1v-1h-1 1-2 1l-1-1v1-1h-4l-1-1h1-1v-1h1-2 1v-1h5l1 1 1-1h1v1-1h2-1v-2h-1v-1h2v1h5-1v-1h2l1-1h2v-3h3l1-1h4-2v-1h1l1 1-1-1h1-1v-1h1l1-1v-2h2l1-1h5v-1h3v1-1h1v1-2l1 1 1-1v1h2-1l-1-1h-1v-1h-1 1v-1l-1-1v-2h-1v-3h2l1-1v1-1h-1v1h-2v-1h1v-1h3l1-1h2v2h-1v1h2v1h-1l-1 1h-1l1 1h-2v1h1-1v1h1v1h1-1v1h4l-1 1h3l1-1h3l1 1h1l1 1h2-1 1-1v-1h-2 1-1 5l2-1h1l1-1h4v-1h1l1 1h-1 1v1h3v-1h1v-1h2l1-1v-1h1-1v1l-1 1h2v-2l-1-1v-3h1v-1h1v-1h3l1 1h1v1h2l1-1h1l-1-1v-1l1-1h-2l-1-1v-2h2-1 1v-1h12v-1 1h1v-1h5l-1-1h-3l-1-1h1-9l1 1h-5v1h-5 1l-1-1-1 1v-2 1l-1-1h-3v-2h1v-2h-1v-2h-1l1-1h1v-1h2v-1h1l1-1h1l1-1h1v-1h1l1-1h2v-1h1-1v-1l-1-1h-8v1h-1 1-2v1-1h-1l1 1h-1v2h1l-1 1h-1l-1 1h-1l-1 1h-2l-1 1h-1 1-2v1h1-2v1h-2v1h1-1v2-1 1h-1v1h1-1 1v2h3v1h1l1 1-1 1h-1l-1 1h1l1-1v1h-1l-1 1h-2l-1 1h-2 2-1v4h-1l1 1h-1v1h-1v1l-1 1v-1h-3v1h-2v1h1l-1 1h-4l1-1v-1h-1l-1-1h1v-1 1-1l-1-1-1-1v-1 1l-1-1v-1h-1v-1h-1v-3h1v1-1h-2l-1-1v-1 2l-1 1h-1l-1-1v1h1-2 1-1v1h-1l-1 1h-1l-1 1h-3v-1 1l-1-1h-2v-1h-1v-1h2-1v-1l1-1h1-2v1h-2v-1h2v-1h1-1l1-1 1-1v1l1-1h-2v1h-1v1h-2v1-2h1-1v-1h1-2v-2h6v1h1v-1h1-1l1-1h-1v1h-7v-1h1-1v-1h6-5v-1h1v-1h3-1 5-1l1-1h1-4l2-1h2v1h1l-1-1h1v-1h7v-1h2-1 1v-1h-1l-1 1h1-1l-1 1h-2v-1h-1 1l1-1 1-1h2v-1h2-1v-1h4v-1 1h-2v-1h1v-1h1v-1l1 1v-1h-1 4v-1h-1l-1 1h-1v-2h3-1v-1h5v-1h-3 4-1v-1h-2l1-1h2-1 2l1 1v-1l-1-1h5-4l1-1h2l1-1h1v-1h3-1 1v-1h2v1l1-1v-1h1v2h-1 2v-2h4v1-1h-2v-1h5v1h1v-1h2l1-1h1-1l1-1h2v1l1-1h1v1h-2v1h-1v1h1l1-1 1-1h1l1-1 1 1h-1v1h1l1-1h1l-1-1h4v1h-2 1v1h1v-1h1v-1h1v1h4v1h2l-2 1h-5 3v1h7v-1l1 1h2-3 1v1h3v1h-1 1l1-1h5l2 1h2l3 1 2 1h2l2 1h1-1 2v1h2v1h1v2l-2 1h-1l-3 1h-7l-1-1h-4l-2-1v1h-1v-1h-4l-1-1h1-4 2v1h3l-1 1h2-1 1l1 1h2v2h-1l1 1v1h1v1h2l1 1h1l1 1h4v-2h-3l-1-1v-1h3l1 1h3l2 1 1-1h2-1v-1h-1v-1h-1 1l1-1h1v-1h4l1-1h4v1h2v-1l1-1v-1h-2v-1l1-1v-2l-2-1h-1 1l2 1 3-1 1 1h2l1 1h1v1h-4l-2 1h1l1 1h1v1h3l2-1h1v-2h4l3-1h1l1-1h5-1 2v-1h-1 1l2-1h4-3v1h1-1l1 1h-2 1l1 1v-1h2v1h1v-1h1v-1h5l1 1 1-1h2v-1h3v2h2v-1h2l1-1h-1l-1-1v-1h10l2 1h3l1 1h4l1 1h2v1h2l1-1h1v-1h-2l-1-1h-1v-1h-3v-1h1v-1l1-1h-2v-2h2l2-1h1v-1h1v-1l1-1 1-1h8l1 1h1v2l-1 1h-1v1l2 1v2h-1l1 1v4h3v1h-1l-1 1h1v1h-2l-2 2h-2v1h1-2v1h-1l-1-1h1-5v1h8l1 1 1-1 3-1h1v-1h1v-1l2-1h1l-1-1v-1h-1l1-1h2l1-1h3v1h2v3h1l1 1h2l1-1h-4v-1h1v-2l-1-1h-3l-2-1h-2l-1 1h-4l1-1-1-1 1-1v-1h1v-1l-2-1v-1h-2l2-2h4v-3h1v1h1v1l-1 1v1h1l-1 1h4l1 1h7-2l-1-1h-4l-1-1h-1l-1-1h7-2v-1h7l2 1h1l2 1h5v1h-2l-1 1h1v1h-1v1-1h1v-1h2v1l-1 1v1h1v-1h2v-1h-1v-1h-1v-1h1v-1l-1-1h-3v-1h-4v-1h-1 1v-1h-1v-2h15l1-1h4l-1 1h-3v1h2v1h1l-2-1v-1h4l1-1h-2l-1-1h-2 4-1l-1-1h-3 1v-1l2 1h1l1-1h-1v-1h5l2-1h9l1-1h5-4l1-1 1 1 1-1h6l1 1h-2 7l1-1h4v1h1-1 1v-1h-2l-1-1h9-3 1v-1h-1 1l1-1 4-1h2l2-1 2 1h4v1h-6 5v1h5l-1 1h-2 7l2-1 2 1 2-1 2 1h3-1v1l1-1v1h2l-1 1h1v-1h1-1 2v1h1v1h-2l-2-1v1h3v1l-2 1h-2l-1 1h-5v1h-1l-1 1h-2l-2 1h-4l-1 1h-2l-1 1h-1l-1 1h1l1-1h2l2-1h7v-1l1 1h1l1-1h2-4v-1h6-1l2 1h3v-1h1v1h1-1v1h1v1h-1v1h1-1v-1h1v-1h1-1v-1h16v1h-1l1 1h12-1 3v-1h1-1v-1h7v1l1-1h1v1h2v-1h2l1 1h3v1h-1 1l1 1h-3 1l2 1v1h-1l-1-1h-3 1l1 1 2 1h1v-1l1 1h-2 1v1l1 1h4v1h2v-1h1v-1h1v-1l1-1h1v1h1l1 1h4l1-1h4l2 1h2v1h1l-1-1h2-2 1v-1h3v1h3v-1h-1v-1h-1 2v-1h-2v1h-1v-1h1l1-1h4l-1-1h2v1h13l1 1h1-6 8l-1 1h-2 1-1l-1-1v1h-2v1h3l1-1 2-1h8l1 1-2 1h-1 5v1h-1 5l1 1h-1l2 1h1l2-1h16l2 1h1l1 1v1h-1v1h4v2h1l-1 1v1l1-1 1-1h-1v-1h2l1-1h11l3 1v-1h4v1h1l1 1h2v1h3l1-1v-1l-1-1h-1 1v-1h7l1 1 1-1h3l1 1h2l1-1h1v1h4l2 1h4l2 1v12zM346 219h1zM602 92h-1v-1h1zm-3-1zm1 0h1-2 1-1l1-1v1zm104 110h-1 1zm-4 0zm2 0v-1 1zm3-1zM342 442h2-2v1h-1v-1h1zm-13-6l1 1v1h1v1h1l1 1h1l1 1h1l1 1h3l-1 1h-8v-1h-1v1h-3l-1-1h-1v1l-1-1h-5l1-1v1l1-1h2v1h1v-1h-1l-1-1 1-1 1 1h-1l1 1h3v1l1-1-3-1v-1h1l1-1h-3v-1h1-1v-1h2l1-1 1 1h1zm21-41h-1v-1l1 1zm26-17l-1 1v1h-1l-1 1-2 1h-1v-1h-2v1h-1l-1-1h-1l-1-1h-2l-1-1-1-1 1-1v-1h1l-1-1v-1 2h-1v3h1l-1 1v1h1l1 1h1l1 1v2l1 1h1v2l-1 1-1 1-1 1v1h-2l-2 1-2 1h-9 1v3l-1 1v1h1v1h-2v1h-3l-1-1h-2v-1l-1 1v4h2v1h1v-1h2v2h-2v-1h-3v1h2v1h-2v1l-1 1 1 1h-1 1v1h-2v1h1l-1 1-1-1-1 1h-2l-1 1v1l-1 1 1 1 2 2h3v2h-1 1v1h-1l-1 1h-1l-1 1h-1v1h-1v3h-2l-1-1v1h-1 2-1v1h-1v1l-1 1h1v2h-1 1l1 1h1v1h-5l-1 1h-1v1l-1 1v1l-1 1-1-1h-2v-1h2-1v1l1-1 1-1h1v-1h-1l-2 1h-1v1h-2v-2h4l-2-1v1h-2v1h-2v-1h2v-1h-1v1h-2v-1h-1v-1h1v1h1v-1h3v1-2h1-1l-1-1h-1 1l1 1h-1l-1 1h-1v-1h-2 1v-2h-3v-1h1v-1h1v1l1 1v-1h1v-1l-1 1h-1v-1h1-2v-1h2l-1-1v-1h1v1-2h-1v1-3h1-2v-1h4-1v-1h-1v1h-1v-1h-1v-1h1v1-1h-1 1v-2h-2v-1h-1v1h-1 1-1v-1h1l1-1v-1h3v-1 2h-1 1v-1h1v1l-1 1h1v-3h2l-1-1v-1h2v-1h-1v-1h-1v-1h1v-2h1v-1h-1v-1h1v-1l1 1v-1l-1-1h-1 1l1-1h-2l-1 1h-1v-1h-1v-2l1-1v-2h1v-2l-1-2v-1h1v-1h-1v-2h1v-1l1-1v-1l1-1v-2h1v-1l1-1v-2l1-1v-2l1-1v-1l-1-1v-5l1-1v-3l-1-1h1v-1l1-1v-3l1-1v-4h1v-1l-1-1v-2h1v-2l-1-1v-1h1v-2l1-1v-7h-1v-4l-1-1h-1l-1-1v-1h-1l-1-1h-1v-1h-1l-1-1h-2l-1-1h-1v-1h-1l-1-1h-1v-1h-1v-1h-1v-1h-1v-3l-1-1v-1l-1-1v-1h-1v-2l-1-1-1-1-1-2v-2h-1v-2h-1v-2h-1v-1h-1v-2h-1v-1l-1-1-2-1h-1v-1h1v-1l-1-1v-1l-1-1 1-1 1-1v-1h1l1-1h1v-4 2h-1l1-1h-1v1h-1l-1-1v-4h1v-1h1-1v-1h1v-4h3l1-1v-2l1 1v-3h2v-1h1v-1h1v-2h-1v-1h1v-3l-1-1h1v-1l-1-1h1v-1h-1v-1l-1-1-1-1v-1l-1-1h1v-1l1 1-1-1h-1 1-1v-1h-2v-1h-1v1h-1v1h-1v1h-1v1h1v1h1-2v1h-1v-1l-1-1v1h-1v-1h-1v-1h-4v-1l-1-1v1h1-2v-1h1l-1-1-1-1h-2v-1l-1-1h-1 1v1h1-1v1l-1-1h-1v-3h-1 1v-1l-1-1-1-1-1-1-1-1-1-1h-1v-1h1v1-2h-1l-1 1h-1l-1-1v1h1l-2-1h-2l-1-1h-1l-1-1h-4l-1-1v-1h-1l-1-1v-1h-1l-1-1v-1h-1l-1-1h-1l1 1h1-2v-1h-1l-1 1h-2l-1 1h-2l-1-1h-2l-1-1h-1l-1-1h-3l-1-1h-1l-1-1h-1l-1-1-1-1h-3l-1-1h-2v-1l-1-1h-1l-1-1h-1v-1h-1v-1l-1-1 1-1v-2l1-1h-1v-1h-1v-2l-1-1h-1v-1l-1-1-1-1-2-2v1h1v-1h-2v-1h-1v-1 1h1v-1h-1l-1-1h-1v-1 1h-1v-2h1-1v-1l-1-1h-1v-1h-2v-2h-2v-1l-1-1-1-1-1-1v-1l-1-1v-1h-1v-2h-1v-1h1-1v-1h-2v-1 1h-1l-1-1h-1v2l1 1v3h1v1h1l1 1v1h1v1h1v2h1l1 1v1h1v1l1 1-1-1h1v1h1v3h1v1l1 1v2h2v1h1v1h1v1h-1v1h-1l-1-1v-1l-1-1h-1v-1h-1l-1-1h-1v-1h-1v-1h1v-1h-1v-2h-1l-1-1-1-1h-2l-1-1h-1v-1h-1v-1h-1 3v-1l1-1h-1v-1l-1-1h-1v-1h-1l-1-1h-1v-2h-1v-2l-1-1v-1h-1 1l-1-1-1-1v-2l-1-1h-1v-1h-2v-1h-2v-1h-4v-1h-1v-2h-1v-1h-1v-1h-1v-1h-1v-1h1v-1h-1l-1-1v-1h1-1v-1h3-2l-1-1v1h-2v-1l1 1-1-1-1-1-1-1v-3h-1v-1h-1v-2h1-1 1v-2l-1-1v-2l-1-1h1v-2h1-1 1v-8h2-2v-2h1l-1-1v1-1l-1-1v-1h-1v-2h1l1 1h4v1l-1 1 1-1h1-1v1h1-1v1-1 1-1l-1 1h2v-4h-1 1v-1h-1v-1h-1l-1-1h2-2v-1h1l-1 1h-2v-1h1-1v-1h1-1 1-1v1h-1l-1-1-1-1v-1 1h-2v-1 1h-2v-1h1-2 1-1l1-1h-2v1l-1-1h-1v-1l1-1h2-3v1l-1-1v-1h1-1 1v-1h2v1h1l-1-1h-1v-1h1l-2 1h-1v2l-1-1 1-1v-1l-1 1v-1l1-1-1 1v-1h-1v-1h-2v-1h1l1 1h2-2v-2l-1 1v-1 1h-1v1h-2v-1h-1v-1h1v-1h1-3 1v-2h1v-1h1l-1-1v2h-1l1-1v-1h-1 1v-1l-1 1 1 1-1 1v1h-2v-4h-1 1-3v1h-1v-1h1v-1h1-2v-1h-1v-1h-1l-2-1v-1h1-1v-1h1-3v-1l1-1-1 1h-1l-1-1v-1h-1v-1h-1v-1 2h1v2h-2v-1l-1-1h1-4 1-1 2v1h1v1h-3l-1-1h-1v-1h-1l-1-1h-3v-1h-1 1v-1h-1 1v1-1h1-3v1h-2v-1h-2v-1 1h-2l-2-1h-1l-1 1h-2v-1h-3v-1h1-2v1-1h-2 1-2v-1l-1 1v-1h1-1v-1h1-1l-1 1h-3l1-1h-2v1-1 1h-1 1v1h-1 2-1v1l-1 1h-2v-1h-1v1h-1v1h-2l-1 1h-3v-1h2v-1l-1 1h-1v-1l1-1 1-1v-1h7-2l-1-1h-1 1l1-1h1-2v1h-4l-1 1h-1v1h-1v1h-3 2v1h-2v1h-1v-1 1h-1 1-1l-1 1h1v1h1v1h-2v1h-1v1h-3v1h-2l-1 1v1h-3v1h-2l-1 1v1-1h-1v1h-2v1h-1v-1h-1v1h-3v1h-1v-1h-1v1h-1v1h-1l-1-1v1h-2l1-1h1l1-1h1v-1h3-1 1l1 1v-1h1v1-1h-1 1v-1h1l1-1h2v-1h1v-1h2l1-1h1-1v-1l1-1h1-1v-1h1v-1h1v-1l-1 1h-2l-1 1h-1v-1h1l-1-1-1 1v1l-1 1v-1h-1v-1h-6v1h-2l1-1v-1h-1v-1h1-1v-1l-1-1v-1h1-1l-1 1v1h-5l-1-1h-1v-1h-1l1-1h2v1l1-1v1h1l1-1h-2 1-5l1-1h-3v-1h-1 1v-1h1v-1l1-1h2-1 1v-1l-1 1v-1h1v-1h1-1 6l1-1h4v-1h1l-1-1-1-1h1l1-1h-5v1h-2l-1-1v1h1-10l-1-1h1-1l-1-1h2v-1h-5l-1-1h4v-1h4-1v-1h4l2-1h1v1h-1 1-1v1h7l1-1v1h1v-1h-3l-1-1h-1l1-1v1h1v1h5v-1h-2l-1 1h-1v-1h-1 1v-1h-6v-1h-1v-1l-4-1h-2l-1-1h-2 2v-1h4v-1h4l1-1h1v-1l2-1 1-1h1-1v1h1v-1h3l2-1v1h2l-1-1h-1 1l1-1h1v1h-1 4v-1h3v-1h4l1 1h-2v1h1v-1h3l1 1h1l1-1h4l1 1h-1 2v1h13l2 1h14v1h7l3 1h2l1 1h3l1 1 1-1 1 1h3-1v-1h-1 1-1v-1h4v-1h1l1 1h-1 4v-1h3l1-1h6l-3 1h-4v1h-2l-1 1h-1l-1 1h3v-1h-1 2v-1h4v1-1h1v-1h4v-1h1l-1 1h2l1-1h1l1-1h-2 1v-1l1 1h2v1l1 1 1 1h4l-1-1h1v-1h1-1 2v1h1l-1 1h4v-1h7l1 1h5l1 1h4l2 1h1v-1h3l1 1h1l1 1h1-3v1h-2v1h14l2-1h1v1h3v1h1v-1 1h2v1h-2 1l1 1h1l1 1-1-1v-1h1v1-1 1h1l-1-1-1-1v-1h-1 1v-1h4v-1h2v-1h-2v1h-4v1h-2l-1-1 1-1h5l1-1h1l1 1h1v1h2v1h5l1 1h13v-1h-1 1l1 1h3l-1-1h-1l-1 1v-1h-1v-1h6l-1 1h2l1-1v1l-1 1v1h2l-1 1h1-3 1l1 1v-1l1 1 1-1v-1l-1-1v-1h4v-1h2v-2h-1v1h-2v-1h2-1v-1h2-1 2-4v-1h-5v-1h-1v-1h1v-1h1-2v-2h3l-1-1h1l1-1h2l1 1h2-1 2v1h1v2h2v1h2v1h-2v-1 1h-1 2-1l-1 1h-1 2l1 1h1v-1h1v1h3-3l2 1 1 1h-1v1h2v-1h1v-1l1-1h1l1 1h1l1 1 1 1h-2v1l1 1 2 1v1l1-1h2v-1l1-1 1-1v-1h3-1v-1h1-2v-2h9v1h-1 3l1 1h1-2v1h2l-1 1h-3l1 1 1 1h1l1 1-1 1h-1l-1 1h-1l-1 1h-3v-1h-2 1-1v-1h-2v1h1v-1 1h2v1h1v1h-1l-1-1v1h-1l-1-1h-5l1 1h1l-2 1-1 1h-5v-1h-6l-1-1h-1v1h5l1 1h1l3 1h3v1h-1l-2 1v1h-4l1 1-1-1h-2v1-1l-1 1h1l-1 1-1-1v1h-1l-2-1h-4l-1-1h-1v1h4l-1 1h2v-1h1v1h3v2h-5v1h1-2v1h-1l-1-1 1 1h-1v1h-1 1l-1 1h-1v1l-1 1h-1v1h-1 1v1l-1 1v3h1v1h1v1-1l1-1 1 1h1v-1 1h1v2h1v1l1 1h-1v1h-1 3l3-1h2l1 1h4v1h2v1l1 1h2l2 1h3v1h1l-1 1 1-1h8v1h1v1l-1 1 1 1v4h1l1 1h-1 1v1h2v1h1v1l-1 1 1-1h2v1h1v1h1-1v-1h-1v-1h1v-1h1v1h1v1-3h1v-2h-1v-2l-1-1h1v-1h-1 1-1v-1h-1v-1h-1 1l2-1h2v-1h2l1-1h1v-1h1v-4l-1-1-1-1-1-1h-1l-1-1h-1v-1h1v-1h1v-1h2-1l1-1-1-1v-1h-1l1-1h-2 1v-1h1l-1-1h1l-1-1h-1v-2h5l2 1h1-1 5l1-1h2v1h2v1h2v1h-1 2-1 1v1h5v1h1v-1h1v1h-1v3h-3 3v2h1v1h-2v1h1l1-1h3v1h1v1h-1v1h-2 2v-1h1v-1l1 1h-1 1v1-1h2v-1h2v-1h1v1h1-1v-1h2v-1h-1 1v-1h1v1-1h-1v-1h1v-1h2l-1 1h1v-1h1v1h1v2h1l-1 1h1v-1h1v1h1v1h-2v1l1-1v1l1-1h1l-1 1h-1v1l1-1h1l1 1h1v1h-2 1l1 1h1l1 1h-1v1h-3v-1h1-1v1h2v1h1-1 1l1 1h-1 3v1-1 1h1-1 1v1h-1v1l1-1h2v1h-1v1-1h2v-1h1v1l1 1h1v-1h1v1h2-1v1h-3v1h-2l-1 1-1-1v1h-2 1v1h1l1-1h1l1-1h3-1v-1h2l1 1v1h-1 1v1-1h4v1h1l-1 1v1h-1 1v1h1-1 1v1h-1l-1 1h-1l-1 1h-5v1l-1 1h-1l-1 1h-3v1l-1-1v1h-3l-1-1h-12v1h-3v1l-1 1h-2l-1 1h1-2l-1 1-1 1-1 1h-1v-1h-3 2l1 1h1l-1 1-1 1-1 1h-1v1h-3v1h-1l-1 1h-2v1h-1l-1 1h-1 1v1h-2 2l1-1h1v-2h2v-1h2l1-1h2l2-1 1-1 1-1 1-1 1-1h2v-1h3l1-1h4l1-1 2 1h1l1 1h-1 1v1h-2v1h-6 2l1 1h3v1l-1 1h-1 2v2h1v1h2-1l1 1h3v1l1-1v1-1h2l1 1v-1 1h1-1 1l1 1h-3l-1 1h-3v1h-1v-1 1h-3l1 1h-2v1h-1l-1 1h-1v-1h-1v-2h1-1 1l1-1h-1l3-1h1v-1 1h3v-1h-4v1-1h1v-1h-1 1l-1 1h-2l-1 1h-1v-1 1h-3v1h-1v1h-3v1h-1v-1h-1v1l-1 1h-2l-1 1v1h-1v2h-1v1h1v1h2v-1 1l-1-1h1v2h-4l1-1-1 1v-1 1l-1 1h-5l-1 1h-1v-1 2h-1 1v2l-1 1v1h-1l-1 1v-1h-1l-1-1 1-1h1-2v2h1v1l1 1h-1 1v1h-1v1l-1 1-1 1v-1l1-1h-1v-1h-1v-1h1-1v-2 1-1h1v-1l-1 1v-1 1h-1v2l1 1h-1v-1l1 1v1l-1-1h-2v-1h1v-1 1h-1v1h2v1h1v1h-1l-1-1v-1h-1l1 1h1v1h1v1h-1l-1-1 1 1h1v1h-1v-1h-2 2v1h2v1l1 1v2-1l-1-1v-1 2-1h-1v1-1 1h-1v-1 1h2v1-1h1v1h-1v1h-2v-1 1h-1v-1 1h1v1h-1 2l-1 1h-3l1 1h-2v1h-2l-1 1-1 1v1h-1l-1 1h-1v1h-2v1l-1 1v1h-1 1l-1 1v3l1 1v1l1 1 1 2v2-2h-1v-1 2h1l1 3v5l-1 1h-2 1-1v-1l-1-1h-1v-3 1h-1v-1h-1v-2h-1l1-1h-1 1-1v-4l-2-1-1-1-1-1h-1v1h-3v-1h-1v-1 1l-1-1h-1 1-4l-1 1h-1l1-1h-1v-1 1h-4v1h-2v-1h-1v1h2v1-1h1v1h-1v1h1l1 1h-2v-1h-1v1h-1v-1h-1v1h-2v-1h-1v-1h-2 1v1h-2l-1-1h-3v-1 1h-1l-1 1h-1 1-1l1-1h-1v2h-1v1h-2v1h-1 1-1v-1 1h-1v-1 1h-1v1h-1 1-1v1h-1 1l-1 1v1-1h-1v1h1v2l1 1v2l-1 1v2l-1 2v5l1 1v1h1l-1 1v-1l-1-1 1 1v1l1 1v1l1 1 1 1 1 1v2h1v1-1 1h3l1 1h5l1-1h2v1h1l1-1v-1h1v-1h1v-2h1v-4h4l1-1h5-1 1l1 1v1h-1v1h-1v2l-1 1h1v1h-1 1l-1 1v2h-1v-2 1h-1v1h1v1h-1v5h-1l-1 1 1 1v-1l1 1h1v-1h1l1 1h3l1-1h4l1 1v-1l1 1 1 1h-1 2-1 1v1h1v1h-1v-1 1l1 1v1h-1v5h-1 1v-1h-1v6h1v1l1 1 1 1 1 1v1h1v1h1v-1l1 1h2v-1h2l1-1h4l1 1h1l1 1 1 1 1 1v1h1l-1-1v-1l1-1h1v-1l1-1h1v-3l1-1 1-1h2l-1 1h1v-2h1l1 1 1-1 2-1h1v-1h1v-1h2l1 1-1 1h-2v1l1 1v2l-1 1v2h1v1h1l1-1v-1l-1-1v-1h-1v-1h1v-1h2l1-1h2v-1h-2v-1h2v2h3l1 1v1l1 1h6l1 1h3l2-1h1-1l1-1h6-1v1h-2v1h1-1 1v1h1v-1 1h1v1-1h1l1 1h1v1h-1v2h-1 5v1-1h1v1h1l1 1 1 1v3-1h2v1h1v1h1v2-1h4v1-1h6v2-2l2 1h1l1 1 1 1 1 1v1-1h1v2-1h1l1 2v2l1 1v2h1v1h1l1 1-1 1h-1v1l-1 1-1 1h-1v2h-1v1l-1 1h-1l-1 1h2l1-1h1l1-1h1-1v1h1v2h3l1-1v3h-1 1v-1l1-1 1-1h1v-2h1v-1h4v1h2l1 1h1v1h1v-1 1h2v2h-1 1v1l-1 2h1v-2h1v1l1-1h1v-1h1l1 1h1l1 1h1v-1l1 1h6v1h2v1h1l1 1 1 1h1v1h1v1h2v1h2v-1l1 1h1v1l1 1v3h1v2h-1 1l-1 1h1l-1 1v2l-1 1-1 1v1h-1v1h-1v1h-1v1h-1v1h-1v1-1 2l-1 1-1 1-1 1v1h-1v-1h-1 1l-1 1v2-1 9l-1 1v4h-1v4l-1 1-1 1v2l-1 1h-1v3h-1l-1 1-1 1v1h-4v-1 1h-2v1-1h1-3l-1 1h1-1l-1 1h-1v1h-1l-2 1h-1l-1 1-1 1h-2v1h1-1v1-1h-1v1h-1 1v1h-1 1l-1 1v2l1 1v1h-1v3l-1 1h-1v1l-1 1-1 1-1 2-1 1v1l-1 1-1 1h-1l-1 1v-1h1l1-1h1v-2h1v-1h1l-1-1-1 1v-1h-1l1 1h-1v2h-1l-1 1v2l-1 1v1l-1 1v1h-1zM17 319h1zm27 210h-5v-1h4l2 1zm12-3l-1-1h-2 2l2 1zm-7-2H38v-1h5l2 1h4zm20-4h-2v-1h-4 5zm287 0v2h-9l-1-1h-3v1l-3-1h-4l-1-1h2v1h12l2-1h1-2 1l1-1h5-1v1h2-1zm88-1h1v-1 1h4-8l1-1zm-4-1h-1 2zm-103 2h-1v-1h-2l-2-1h5l1 1h1l-1 1h-1zm-4-2h-3v-1h4l-1 1zm102-1h-8 8zm-382 2h-9l-4-1h-2l-1-1 1-1h8l2 1h2l1 1h2v1zm271-1h-4v-1h1l2-1h3l1-1 6-1h2v1h-2l-2 1h-2l-2 1-1 1h-1zm727-4h-5 4v-1h1v1zm-650 2h5v1h1l1 1v1h-3v1h1l-17 1h-1l-1 1h-14v-1h1l1-1h4l2-1h2l1-1h1v-1h-1 1v-2h1l2-1h1v-1h14l1 1h1v1h-4v1h-1zm-318-5h1-2 1zm-4 0h-3 4zm971 0h4l2 1h-6l-1 1h-1v-1h-1 1v-1h-1 3zm-965-1h-2 2zm-2 1h-4l-1-1h4v1h1zm8-1h-2 3zm-8-1h3v1h-4zm-3 1h-2v-1h2zm8-1h-1 1zm2 0h-1 1zm1-1h-2v-1l1 1zm946-2h-1 1zm-942 0h-3 3zm945-2h-1v-1h2-1zm-906-2v1h-1v-1h2zm5 1h-3l-1-1h4v1zm11 0h-2l-1-1h3l1 1h-1zm32-1h-2v-1h4-1zm-8-1h-1l1-1h1l1 1h-2zm-3-1v1h1l-3 1h-6 1v-1h-2v-1h8zm305 1v1h1l-1 1h-1v-1h-1l-1-1h-1 3v-1h1zm582-1h-1v-1h1v1zm-905-1h2v1h1-2l1 1 1-1v1h1l1-1 2 1h1v1h-4l-1-1h-3v-1h-3v-1h2zm160 0h-1 1v-1h1v1zm-93 0h-1l-1-1zm92-1l-1 1h1v1h-1l-4-1h-1l1-1h2-1 4zm-60 0h-1 2zm8 1h-1l1-1-1-1h3l-1 1h1-1zm-11-2h-1 1l1-1v1zm241 0h-1v-1l1 1zm258-1h1v-1 1zm-247 0h-1v-1h-1 2zm252-1h-1 1zm-514 0h2v1h1v-1h3-2v1h1l2-1h1v1h-2l1 1h-8v-1h-11v-1h-1 6l1-1v1h4l1-1h1zm291-2h-1v-1zm-176-1h-1 1zm177-1h2v1h-3v-1h-2 3zm-217 0l-2 1h-7 1l1-1h6zm39 0v-1h1v1zm168 0h-1l-1-1h2zm27 0h-1v-1h2v1zm-19 0h-1v-1h3zm-209-1h1-1zm439 1h-1v-1h1v1zm-206-1h-2 2zm68 0h-3v-1h3v1zm-78 0h-1v-1h1zm-191-1h-1l1-1v1zm-42-1h1v1h1-5 1l1-1zm279 1h-2v-1h3-1zm-270-1h-2l-1-1h2zm31 0h-1v-1h-1v-1h1l1 1v1zm-25-2v1h1l1 1v1h1l1 1 1 1v2l1 1h-1v1l-1 1h-1v1h-12v-1h8l-1-1v1h-3l-1-1h4-3v-1h-2l-2 1h-1l-1-1v1h-1 1-1v1l-1-1h-3v-1h3v-1h1l1 1h1l-1-1h4-2v-1h10-1v-1h-4 1l1-1h3-1l-1-1h-2v1-1h-3v-1h1v-1h-1v-1l2-1h3l1 1zm-63-1zm92 0h-1 1zm-21-3h-1 2-1zm710-1h-1 1zm-710-2h-1 1zm468 1l-1-1h2zm-114-1h1zm351 0h-1 1zm-235 0h-1 2zm-472 2h-1v1h-2v-1l1-1 1-1h2-1v1h1l-1 1h-1 1zm469-2h-1v-1zm41-1h-1 1zm195 0h-1v-1l1 1zm-191-1zm-509 0l-1 1v-1h1-1 1zm498 0h1-2 1zm-12-1h-1 1zm-484 0h-1v-1h1v1zm510 0h-3v-1h3zm7-1h-1v-1h-1 1v1h1zm-509-2h-1 1zm18-1h-1 2zm-18 0h1-1v1h-3v-1h2v-1l1 1zm3 0h-2 1v-1h1v1zm1-1h-1 1v-1 1zm12 0h1v-1 1h1v1h-1v-1h-1v1h-1l1-1h-2 1v-1h1zm2-1h1-2zm-10 0h-1 1zm14-1h-1 2zm-379 64h25l10 1h17l7 1h13-2l-1-1h3-6l-16-1h-5 5-1l-2-1h2l-3-1H25l-1-1h-2l-6-1h-1l-8-1h9l5 1h14l1 1h22l1-1h-2 7l1-1h4l1-1h1l-2-1-3-1h3l-1-1h-7l-2-1h15l12-1h1-4v-1h-4v-1h7v-1h-1 2-1l-2-1h-8v-1h-9l-2-1h-3l-1-1h5l1-1h1-11l-2-1v-1h1l-1-1h15v1h8l2 1h2v-1h4l-1-1h-1 6l2 1h2v-1h-1 1-1v-1h1l-2-1h-8l-1-1h-1 9l2 1h1l1-1h-3v-1h5l1-1h11-2 3v-1h4l5-1 1 1h2v-1h1v-1h5l1 1h6l1-1 1 1h8l3-1h27l1-1h3l2 1 2-1 4 1 1-1v-1h4v1h-1 1l1 1h-2v1h-1 8v-1h-1 1v-1h-1 5v1l-1 1h-1l-2 1h24l1-1h1l1 1h13-1l-1-1h-4 1v-1h-3l-1-1v-1h-4v-1h12-2l-2-1h-9l-1-1 1-1h2l1 1h-1 15l2 1h20v-1h3l1-1h3v1h-2l1 1h9l1 1h7l2 1 2-1h1v-1h3-1v-1h3l2 1v1h5l1-1v1l-1 1h1v-1l2 1 1-1h6l3-1h11l2-1h3l1-1 1-1 1-1h-1v-1h-1v-2l-1-1v-1h-1l-1-1v-1l-1-1h5v-1l-1-1h1v-1h1l-1-1v-1h1v-1h-3 1v-1h2v1-1l1 1v-3h1v1h1v-2h4v-1h-1 2v-1h1-1v-1h3v-1h3l1-1h2l1-1 2-1h4v-1h2l1-1h3v1h1-2 1-2l-1 1h-2v1h-1v1h-5v1h-1l-1 1h-2 1-2v1h1l-1 1v1h3l1-1h1v1h-1v1h-1v-1h-1l-1 1-1-1h-2v1h1v1h-1v-1h-1v-1h-1l-1 1h1-1l-1 1h1l-1 1-1-1h-1v1h-1 1v1h-2v2h-1 3l-2 1h1v1h3l1-1h3-2l-1 1h1v1h1v1h2v1l1 1h1v1h-2 3v1h-2l1 1 1-1 1 1h1v1h-2l-1 1h3-1l-1 1h-2 5v1h-2v1h2v1h2v1h-6l1 1v-1l1 1h1v1h-3 2v1h-2 4-1v1h-3l-1-1v1h1v1h-2l-1-1h-1v1h-2 1l1 1h-3 3l-1 1h-4l-1 1h-4l-3 1h-6l-2 1h-3l-2 1-3-1h-14v1h1l2 1h2l1 1h7l-1 1h-1l-1 1h-4l-4-1h-15l6 1h5l1 1-1 1h-9l-3-1h-2l-2-1h-1l-1-1v1h2v1h-1v-1l-1 1h1l1 1h2l2 1h2v1h2v-1h12l1 1h1l-1 1h-10l2 1h9l1 1 1 1h12v-1h2l1 1h2l2 1 1-1 1 1h1l8 1h10l-1 1h-6l-1-1-1 1h-2 5-6l1 1h1l1 1h2l2-1h10-1l-4 1h-2 1v1h1l1 1 2-1v1h-1v1h6l4-1 1-1h2l3-1h5l2-1h9l1-1h9l1 1h1l2-1h1v1l-1 1h7l2-1h1l2-1 2-1h1v-1h6l3-1h2l2 1 2-1h3l1-1h12l1-1h21l1-1h1-5l-15-1v-1h-12l-3-1h-4v-1l3-2h2l1-1h1l1-1h5l1-1h4l1-1h1l3-1h5l2-1h7l3-1h14l1-1h-1v-1h2v-1l2-1h7l1-1h-5 1v-1h-1v-1h2v-1h5l-1-1h7l1-1h1l1-1h1v-1h-4l-1-1h4v1h1v-1h2v-1h-1 4l1 1 1 1h2l1-1v-1h-1v-1h7v1h-2v1h16v1h2l1-1h3l2-1h3l3-1h10l2-1h4l1-1 1 1h2l3 1h3l1-1h2l-1-1h-1 2l1 1h7l1-1h1l1 1h1l3 1 1-1h3-1v1h1v1h3l2-1h1v-1h3v1h4l1-1h1l1 1 1 1h7l1-1h4l2-1h6l2-1h2l1-1v-1h-1v-2h5-1v1h-1 3l1 1 1 1h9l1 1h1l1-1h1v-2h1v-1h4v-1h4l1-1h5l1-1h5v-1h3-1l1 1h3v1l1-1v-1h1v-1h-2 7-1v-2h2l2-1h2l2-1h6l1 1h2l1 1h2l1 1h-3 1l-1 1h-1l1 1v-1h7l2 1h9l2 1 1-1h2l2 1h16v2h1l-1 1h-1 1v1h-1 1v1h-3 1v2h-2l-1-1v1h-2v1h6l-1 1-1 1-1 1h-1l-1 1-1 1v1h-1v1l-1 1h-1v1h4l1-1v-1h1l2-1h2l1-1h2v-1h2v-2h1v-1h2l1-1 1-1 1-1h3l1 1 2-1v1l1-1h1l1-1h2l1-1h2l1-1h1v-1h1v-1h5l2-1h7v-1h1l1-1h9l3-1h9l2-1h2l1 1 1-1h1l1 1h2l1-1h2l1 1h1l2-1h3l1 1 1-1h2v1h2l1-1h3l2-1h2l1-1h2l2 1h4l4 1h4v1h8l1-1 1-1h2l2-1h4l1 1 1 1h3l1 1v1h-5v1h4l1-1h15-4l-1 1h1l4-1h4l1-1h9l1-1h4l1 1 1 1h6l1-1v-1h2v-1h11l1 1h2l2-1h2v1h9l2 1h7l1 1h2l1-1h1l1 1h2v1h-1l-1 1h7l2 1v1h13v1h8v-1h1l1 1h2v1h6l1 1 1-1h1l1 1h4l1 1 1 1h1l1 1 1 1 1 1h2l-1-1v-1h3l1 1h2l1-1 1 1h9l1 1 1 1h2l2 1h2v-1h1v1h1v1h-2l-1 1h1v1h-1l-1-1h-3l1 1h3v1h-1l-2 1v-1h-3l-2 1-1-1h-1l1 1h2-1l-1 1h-3 1l-1 1h-2v-2h-1l-1 1 1 1h-1l1 1h1v1h-5v-1h-1v1h-2v2h-5 3l1 1h1v1l-1 1h1l1 1h-1v1h-1 2l1 1h1v1l1 1h2-1l-1 1h4v-1l1 1 2 1h3-9l-1 1h-4l-2-1h-2l1 1h1v1h-1v-1h-1l-1 1h-2 1v1h-2 1v1h-2 3l-1 1h-5l-1 1h7-1 1v1h-1 1v1h-1v1h5l1 1h2l2 1-4 1h-4 15l2 1h2v1h4-3l1 1h11l1 1h11l1 1h12l1 1v17H-11zm380-65h2l-1 1h-1v-1h-1v1h-2v-1h3zm-1 0h-2v-1l1 1h1zm-14-1v1-1h-1 1zm-6 1v-1h1-1zm6-2h2l-1 1v-1h-2v1h-1v-1h1zm4 0h-1 1zm1-1v1l-1-1h1zm3-1h1v1l-1-1v1h-3 1v-1h1zm12-2h-1 1zm-4 0h2-1zm29-2h2v1l-1-1h-1zm518-147zM751 425h-1v-1h1v1zm-1 0h2-1v1h1v-1h3v1h-3 1v1-1h1v1h-3v-1h-1v1h-1v-3h1v1zm-53-8zM350 223h1-1zm0-2zm674 221h1v-1 1zm-35-34h-1 1v-1zm0-1zm3-1h-1v-1h1zm-10-6h3v1h3v-1h4v4-1 1h-1v3h-1v-1h1-2v1h-1v1h-3v-1h1-2v-1l-1-1v-1 1h1v-1h-1v-1h-1v-1h-1v-3zm10-1zm-11 0zm11-1h1v1h-1l-1-1h1zm-1-2l1 1v1h-1v-2zm-12 2v-2 1zm4-5h-1 1zm1-1h-1zm-25-8h2v1h-5v-1h4-1zm49-25v1-1zm0-1v1-1zm-123-3l-1-1v-1l1 1zm122-1l-1-1 1-1v-1h1v1l-1 1zm-6-7v1l-1-1h1zm-2-4zm-2 0v-1 1zm-105-4h-1v-1h1zm102-2zm0 0v-1 1zm-8-6h-1 1zm-21-4zm0-1h-1l1-1h1l-1 1zm-7-3h-1 1zm-2 0v-1zm1 0v-1 1zm-37-1h-1 1zm2-2h-1v-1h1zm35-3v2l-1-1v-1h1zm-2 0zm1-7l-1 1v-1h1zm-18 1h-2 1v-1h1zm0-1h1l1-1 1 1h-1v1h-2v-1h-1v-1h1v1zm18 0l1-1zm-12 0v-1zm32 2v1h1v1l1 1v4h2v-1l1 1 1 1h1v5l1 1v1h1v4l1 1v1h1v1h3v1h1v1h2v1h1v1h-1 1v1l1 1v1h1v3h1v-1 1-1h1l1 1v-1l1 1v3h1v1h1l1 1 1 1 1 1v1h1v2h1v5l1 1v5l-1 1v4h-1v2l-1 1v1h-1v1h-1v1h-1v1h-1v2l-1 1v2h-1 1-1v1l-1 1v3h-1v3h-1l-1 1-1-1-2 1h-2l-1 1-1 1h-2v1h1v1h-1v-1h-1v-1h-2v-1h1-1l-1 1v-1h-1 1v-1h-2v1h1-1l-1 1h-1v1l-1-1h-2v-1h-5v-1h-2l-1-1-1-1v-3l-1-1-1-1h1v-1h-2v1h-2v-1h1v-2l-1-1v-1 1h-1v2h-2v1h-1l1-1h1v-3l1-1v-2h1l-1-1v1h-1v1l-1 1h-1l-1 1-1 1-1 1 1 1h-2v-1h-1v-1 1h1v-1l-1-1v-1h-1v-1l-1-1h-1v-2h-1l-1-1h-4l-2-1-1-1h-1v1l-2-1-2 1h-3l-2 1h-1l-1 1h-6v1h-2l-1 1h-1v1l-1 1-1 1h-4v-1h-4l-1 1h-2l-1 1h-2l-1 1-1 1h-6l-1-1v-1h-3v-3l1 1 1-1v-2h1v-3l-1-1-1-1v-2l-1-1v-3l-1-1v-1l-1-1v-2h-1l-1-2-1-1v-1h1v1h1v-1h-1v-1h-1v-1h1v2h1v-1 1l1 1v-2l-1-1v-1l-1-1v-3l1-1v-2l-1-1 1-1v-1h1v2-1h1v-1h1v-1h2v-1h1v-1l2-1h4l1-1h2l1-1h4l1-1h1l1-1v-1h1v-2h1l1-1-1-1v-1l1-1h1v-1l1-1v2h1v1l1 1v-2h1-1v-1h-1v-1h1v-1 1h3-1v-1h1v-1l-1 1v-2h2l-1-1h2v-1h-1 1v-1h2v1-2h2v-1h1l1 1h1v1h1l1 1-1 1v1h1v-2h2l1 1v-1 1h1v-1h1-1v-1h-1l1-1v-1h1v-1h1v-2h1v-1h1v-1h1l1 1 1-1 1 1v-1l1 1v-1h1-1v-2h-2v-1h1v1-1l1 1h1l1 1h3v1h5v-1 1h1v1h1l-1-1h2v1l-1 1v1h-1l-1 1v1h1l-1 1v1l-1 1v1h1v1h1v1h2v1h2l1 1 1 1h2v1h1v1h1l1 1h3v-1h1v-1l1-1v-3l1-2v-1l-1-1h1v-1h-1v-2h1v-2h1l-1-1v-1h1v-4h2v3h1zm-2-4h-1v-1zm0-2h-1 1zm-1 0zm-153-97zm0-1v1-1zm-2-1h-1v-1l1 1zm1 0h-1v-1h1zm-3 1v-3 1h1v1zm0-3zm-122-9h-1v-1h1-1 1v1zm-378 14l-1 1h-1v-1h2zm0-1zm0-3v1h1-2l1-1zm-4 1h1v-1 1zm1-1h-1v-1zm-3-1l-1-1v-1 1h1v1zm-2-2h-1 1zm4-2l-1 1v-1h1zm-10 0h-1 1v1h-1v-1h1zm7 0h-1 1-1v-1zm-6-2h-1v-1h1zm-2 1v1h-1v-1h-1 1v-2h1v1zm4-3l1 1v2-2h-1v-1h-1 1zm-6-4h2v1h-3v-1 1h1v-1zm4 3l-1-1h1v-1l-1-1h-1 2v1h1v1h-1v1zm44 24zm-76 2h-1 1v-1 1zm-1-2h1zm71-44zm50 184v-1 1zm0-4h-1v-1h1v1zm10-8h-1l1-1v1zm3-2h-1 1zm16-30zm1-1h-1 1v-1 1zm-18-31v-1 1zm-1-5h-1 1zm-21 0h-1 1v-2h2l-1 1v1h-1zm6-3h1l1-1v1h2v2h-1v1l-1 1v-1 1h-4v1-1h-1v-2 1-3l1-1zm-3-1l-1 1v-1h1zm4 0h-1 1zm-1-1v1h-2v-1h2zm-2 1h-1v-1h1v-1 1zm1-1h-1v-1h1zm-1-5v-1 1zm-28-34v-1 1zm517 34l1 1h3v1h1l-1-1h1v-2h1v-2h3l1-1h1v-1h1v-1l1-1v-1h2v-1h2-1 2v-2h1l1-1v-1l1-1 1-1v1l1-1v1h2v1h-1v1h2-1v1h1v-1h1v1h2v1l-1 1h-2l1 1v1h-3v1h1v1h-2l1 1h-1 1v1h1-1 1v1l1 1h-1v1l1 1 1 1h1v1h1-1l-1 1v-1h-2v1l-1 1v4h-1v1h-1v-1 1h-1v1h-1 1v1l-1 1h1v1h-1 1v1h-1v1h-1v1l-2 1-2 1v-3 1h-1v-1h-1v1h-1v-1h-1l-1-1v1h-2l-1 1v-2h-5v-1l-1-1v-4h-2v-1l-1-1h1v-2h-1v-4h1v-1zM356 141h-1 2zm-20-1l1-1zm-1-2v1-1zm18-2h-1 1zm-39 0h-1l1-1zm0 0h-1 1v-1 1zm8-4v-1h1l-1 1zm30 3l1-1v1h-1 1-1 2-1l1-1h1v-1 1h1v1h-1l-1 1h-2l-1-1v-1h1l1-2 1-1v1h1l-1 1v1h-1zm-8-2h5v1h-1v1h-1v-1h-1 1-1 1v-1l-1 1h-2v-1h-1l-1-1h1v-1l1 1h-1 1v1zm6-2v-1h1v-1 1h-1zm23-1l1-1v1zm-31-1h-1 1zm0-1v1-1zm-180-2h-1 1zm0 0v-1h-1 1v1zm-8-2h-1 1zm218-1v1h-1v-1h1v1-1zm2 0h-1 1zm-214 1l-1-1h-1 1zm-8-1h-1 1zm198 2h-4l-1-1h-1v-1h-2v-1h1l1 1h4l1 1h1v1zm-193-3zm-1 0v-1h1v1zm213-2h1-1zm-219 0l2 1h4v1l1 1 1 1h2v1h1v1l1 1v-1 1h-4l-1-1v-1h1-3v-1l-1 1v-1h-2v-1h2-2l-1-1v1l-1-1h-2v-1h1l1-1h-1v1h-2v-1h2zm220-2h-2v1h1-1v1h-1v1h-1v2h-1 2v-1h1-1 2v1h-2 1v1h2v1l1-1h4v1l-1 1h1v1h-1 2l1-1v1h-1l-1 1h-1 1v1h-1 2v-1h1v2-1h1v1l-1 1v1h-1l-1 1v-2l-1 1h-1l1-1v-2h-1v1h-1 1-2v1l-1 1h-2v-1h2v-1h1l1-1h-2v1h-2v-1h-1l-1 1h-1l-2-1h-3l-1 1h-1v-2h1l1-1h1-3l1-1 1 1v-2h2-1 1-1v-1h1v-1l1-1v-1h1v-1h1v-1l1-1h1l1-1v1h1v-1h1zm-222 0l-1-1h1v1zm222-2zm-74 0h1zm-157 0h-1 1zm8-1v-1 1zm-2 0v-1h-1 1zm-1-2h-1v-1 1h1zm148 1h-2l-1-1h-1 1v-1h2l1 1v1zm-156-2l1 1h-1v1h1v1h1v1l-1-1-1-1h-1v-1h-1 2v-1zm10 1v2-1h-1v-1h-1 1v-1l1 1zm-2 0v-1zm151-1h-1 1zm-153 1l-1-1-1-1h1l1 1h1-1zm-1-3h-1 1zm-7 0h1v1h-1 1v-1h2-1v2h-3 1-1v-1h-1v-1h1zm5-1v-1zm214-5h-1v-1l1 1zm-55-1h1-1zm-3 0h-1 2v-1 1zm3 0l-1 1v-1l-1 1h-1 1v-1 1h-1l1-1v-1 1h1v-1 1h1zm-2-1v-1 1zm-1 0v-1zm55-3h1v1h-1v-1zm-55 0zm33-4h-1v-1h1v1zm-34-2zm0-1h1zm48-1h-1v-1h1zm-11 0h-1l1-1h1l-1 1zm-32-2h1zm42-2v1-1h-2 2zm-86-1h-1 1zm85 0h1-1zm-44-2l1 1-1 1v1h-1v-1h-1v-1l1-1h1zm45 0h1-1zm-28 0h-2v-1h2v1zm11 0h-1v-1h-2 3v1zm-36-1h1-1v1h-1l-2 1h-2v-1l1-1h4zm13-2h1v1h-2l-1-1h2zm4 0h-2v-1l1 1h1zm-3-2v1h-1v-1h1zm-22-3v-1h2v1h3v1h3l1 1v1h3l1 1h1-1l-1 1h-2l-1-1h-2l-1-1h-2l-1 1h-1v1h-1l-1 1h-2l-1-2h-3v1h-1v-1h1l1-1v-2h1v-3h3v1zm0-1v-1h-1v-1h1v2zm3-1h2-3v-1h-1 2v1zm2-2v1h1-1v-1zm-76-2h1v1h-1v-1zm138 0h1zm-138-1v-1 1zm-4-2h1v1-1h-1zm109 1h-3v-1h4v1zm-109-1h-1 1zm69 1h-1v-1h1-1 1v-1l1 1v1zm34-2l1 1h1-1l1 1-1 1h-3l-1 1h-1v-1h-1v-2h2v-1h2zm-10 1h-1v-1h1zm-78-1h-2v-1h1v1h1zm90 0h-1v-1h1v1zm-82-1h-2 2zm5 0h-1v-1h1zm0-1zm29-1v1-1h1zm35 2h-1v-1h2v-1h2l-1 1h-1l-1 1zm-34-2h-1 1zm41 1h-1v-1h2-1v1zm-74-1h-1v-1h1v1zm17-1l1 1h-2 1l-1-1v1-1h1zm-133 0v1l-1-1h2zm217 1v-1h1zm-30-1h-1l-1 1h-1l1-1h1zm-5 0h-2 1v1h-1v-1h-2 4zm-55 0h2v1h2v1h1l1 1 1-1v1h-2l-1 1h-4l-1-1h-3v-1h-1v1l-1-1h2v-1h1v-1l1 1v-1h2zm32-1h2-3 1zm-41-1v-1h-1 2-1l1 1zm11-8h-1l1-1v1h1-1zm-54 1h3v-1h5l1 1h1l-1 1h-1 3v-1h2l-1-1h3l1 1h2v1l1 1v1h3v-1h-1v-1h-1v-1l-1-1v-1h6l1 1h2v2l2 1 1 1v1l-1 1h2v1h3v1-1l1 1h3v1h2l1 1h-8l1 1v1l1-1h3v1h-2v1h-5l-1-1-1 1-1-1h-4v-1h-1l-1 1h-5v1h-8v1h-6v-1h-1v-1l-2-1h-7l-1-1h-1v-1h2l3-1h12-2l-3-1h-13l-2-1h-1 2l2-1h4-1 3v-1h-1l-4 1h-4v-1h1-4v-1h1l1-1h1-1v-1h1l2-1h3l3-1h4l1 1h-1v1h-1zm28-1h-1l-1-1h-2l-1-1h8v1h-1l-1 1zm79-2h7v1h2v1h2-8l-2 1h-1l-1-1h-1v-1h-2v-1h3zm-22 8h6v-2h-2l-1-1h-1 2v-1h1l1 1h1l-1-1h-2v-1h-1v-1h2l3 1-1-1h-3l1-1h4v-1h8v1h1l1 1v1h1-2v1h-1 2-1v1h1l1-1h1-1 4v1h1-1v-1h4-3v-1h9l1 1h1l-1 1h-1l-1 1 1-1h4l-1 1h-2 2-1v1h1v-1h3-1l-1 1h1v-1h1v1h1v-1h5l1 1v1h-3l-1 1h1v-1h5v1h-3v1h-1 1l1-1v2-1h1v-1h8v1h-3l-1 1h-1 2l1-1h1v1h-1 3-1v-1h2l1 1 1 1h-7v1h1l1-1h1l1 1h4v1h-3l-1-1v1l-1-1-1 1h-1 4v1h-5 4v1h4-1 1v1l1-1h1v1h-1v1l1-1h1-1 2v1-1h2l-1 1h3l1 1h-3 5v1l-2 1h2l1-1h1v1l1-1h1l1 1h1l-1 1-1-1h-1l2 1h-3v1h2-2v1h-3v3l-1-1h-2v-1h1-1v1h-1v-1h-1v-1h-1 1v-1h2v-1h-1v1h-5v-1h-1l-1-1v1h-1 1-2v1h2-1v1l-1-1h-3 2-1v1h2-1v1h1v-1h1v1h1-1 1v1h1v1-1h1v1h1-1 3l1 1h-1 1v1l-1-1v1h2v1h1v2h-1v-1h-1v-1 2h1v1h-1v1-1h-2l-1-1v1h-1v-1h-2l-1-1h-1v-1 1h-2v-1h-2l1 1h1l1 1h1l1 1h2v1h1v1h1v1h-2l-1-1h-5l-1-1h-1v-1h-5v-1h-2l-1-1h2-1v-1h-2 1-2v-1h-2v-1h-3l-1-1h-1 1v1h-5v1h-4v-1h-2v-1l1-1h2l-1-1h3l2 1h1v1h1-1 1v-1h-2v-1h1l1 1v-1h5v-1h-1l-1-1 1-1h2v-1h1l1-1h1v-1l-1-1-1-1-1-1h-2l1-1h-1v1h-1v-1h-2l1-1h-1 1-3v1h-3v-1h3v-1h-3v-1h1-3 1-2v-1l-1-1h-3v-1h-1v1h-1 2v1h-8 1l1 1-2-1-1 1h-2l-1-1h-11v-1h-7l-2-1v-1h7-2v-1h-7v-2h1v-1h-1 1v-1h1v-1l1-1h1l2-1h2l2-1h5v1h-1l-1 1h-1l-1 1h-1v1h1v2h1v1h2v1h1-2l-1 1h-1zm-41-9l3 1h2l1-1h3v1h1-2v1-1h1v1h-2l-1 1h-1 4-1 1v1h2v1h-1 1v1h-1 1v1h-5v-1l-1 1h1v1h-3l-1-1h-1l-1-1h-1l-1-1h-4l-1-1h-1v-1h4v1h3v-1h1-1v-1h2-5v-1h2l1 1v-1h-2 1v-1h2v1l1-1h-1zm6 0h-4 6-2zm15-1l2 1h7v1h-2v1h-2 1v1h-2v1h-7 2v1h-1v1h-4v-2h-1v-3h3-1v-1h-1 2l2-1v1l1-1h1zm-81 1l1-1h1v1l1-1h5l1 1 3 1h1v1h-3l-2 1h-3l-2 1h-1l-1 1h-2v1h-1v1l-1 1h-5l-1 1h-2v-1h-1v-1h-3l-1-1h-3 1v-1h1l1-1v-1h1v-1h1l1-1h1v-1h-2l-1-1h4l2-1h5l1 1h4-1zm69-2h-2 2zm6 0h-2 2zm-27-1h-2v-1h3v1zm32 0v1h-4l-1-1h-4v-1h1l1-1h5l1 1h1v1zm-8-2h-1v1h-1v-1h3zm-76 0v-1h1-1zm81 0l-1-1h2zm-73 0h-3 1v-1h4v-1h1v1h-1l-1 1zm120-1h-2 1l1-1h1v1h-1zm-70 0h-1l-2 1-1-1h1-3 1-2v-1h6v1zm-6-2h3v1h-4v-1h-1 2zm19 0h1l-1 1h1v1h-1v1h1l1 1h-1v-1l-1 1h1-2 1v1h-8v-1h1-2l2-1h3-11 1l1-1h2l1 1v-1h-2v-1h1-2l1-1h1v1h2l2 1h1-1v-1h2-3 2-3v-1h6-1 4zm-10 0h-1 2l1-1 1 1h-2zm-22 2h2-1 3v1-1h1-1 4l1 1h-1v1h-1v1h-13l-1 1h-3l-3 1h-3l-1-1h-1l1-1h7l1-1h1-6v1h-3v-1h1-3 1l-1 1h-2v-1h-1v1h-2l-1-1h-3v-1h7-6 1v-1h6-5v-1h5-3l1-1h4v1h5l1 1h2v1h8l-2-1h-1 2v-1h-3l1-1h1l1-1h2l1 1h-1l1 1h1-1v1zm57-2h-3v-1h3v1zm-73 0l-4-1h4zm59-1h3v1h-1 9-2 1l5 1h-6 2v1h4v1h-1 3-1 8v1h1l1-1h-1 6v-1h1l2 1 2-1h3l1 1h5v1h-1l-2 1h3-3 1v1h-9v-1h-1v1h-16 1v-1h-1v1h-1v-1 1h-6v-1 1h-1 1-3v-1h-1 1v-1h-1v-1h1l-1-1h-1v-1h-10v-1h1-4v-1h1-1 7zm-65-1h-2v1h1-1 1v1h-4v1h-3v-1h1v-1h-1v1h-2v1h1-4l1 1h-4v-1l-1 1h-5 1v-1h-2 2l2-1h2l2-1h1l1-1h9l-1-1h4zm79 0h-5v-1h5v1zm-45 0h-4v-1h-1v-1h1l1 1h2l1 1zm27-2h7v1h-9l2-1zm-19 1h-1l-1-1h4-1v1zm-37-1l-1 1-1-1h-1 1l1-1v1h2zm10-1h3v1h-4 2l1 1h-4l-2 1h-1l-1-1h-2v-1h3l3-1h2zm23 0h-1 2zm-21-1h2v1h-5l-1-1v1h-6v-1h7v-1h2v1h1zm42 0h4v1h-1 1l-1 1h-6 1-2v-1h2-4v-2h4l1 1h1zm-22-2h2v1h1l1-1h1l1 1h4l1 1h1-1v1h2v1h1-6v-1h-12v-1h-1 5-2 2v-1h-2 1-4 1l-1-1-1 1-1-1h6zm14-2h-4v-1h4zm21-4h1l1 1h2v1h5-1 1l-1 1h4-2v-1h3v1h-1 3v2h-1 7v1h-4l-1 1h-2l-1 1-1-1h1v-1h-1v2h-1 1-2v1h-2l-1-1h-1l1 1h1-4 1-6l-1-1h-1 3-5v-1h1-3l1-1h8v-1h-6l-1 1h-2 1v-1h-1l-2 1h-1l-1-1h-1 4l1-1h-1l-1 1h-3v-1h-2v-1h-1 8-7l1-1h2-2v-1h3l1 1h3-2l-1-1h-2l1-1h6-3v-1h4l2 1h1zm69-6h3l1 1 1-1 1 1h3-6 15l1 1h6v1h-4l-3 1h-6l-1 1h-3l-6 1h1l8-1h3l-2 1h-4l-3 1h-3l-1 1h-5l1 1h-5 4v1h-2 1-3l-1 1v-1h-7 4v1h-11 2v1h5v1h-2l-1-1h-9l1 1h12l-1 1h-5 2l1 1h-1l-1 1h-7l1 1h-1l-1 1h-7l-2-1h-1 1v1h1-3 9v1h4l-1 1h-2l-1 1h-5v-1h-5 1-6l-1 1h-4l-1-1h-1l-1 1h-1l-1-1v1h-3v-2l-1 1h-3l1-1h2l1-1h5-3v-1h-1v-1h6l1 1 2 1h3l1-1h2l1-1h1-1l-2 1h-6v-1l1-1h3-2v-1l-1 1h-8 1v-1h1l1-1h15-8v-1h3-3v-1h-3l-2-1h-1v-1h-1 11l1 1h3v1h5-2l-1-1h-2l-2-1h-2l1-1h10l3-1h5-6l1-1h3l2-1h-3l-1 1h-4v1h-2l-3 1h-5l1-1h1-5v1h-9l1-1h4l1-1h5-9v1h-3l-1 1h-1l-1-1h-4 6l1-1h6-15 2-1v-1h6-9 3-2l-1-1-1 1h-2v-1h8v-1h5l1 1v-1h3l1 1h1l1-1h-5 3l1-1h6l1 1h2-1 7l1 1h2l-2-1h-6v-1h-1 2-1l1-1h1l1 1h1l-1-1h7-4 12v1h2v-1h-4v-1h-1 9l1 1h4-2v-1h6l1 1-1-1h5zm6 425h-1 1zm0-1zm3-1h-1 1zm-2 0h-3v-1h-1 4zm-8-1h4-1v1h2v1h-1l-1-1h-1 1-2l1 1h-1v-1h-2v-1zm-4 0h2v1h-1v-1h-2 1zm-1-3h1v1h-3v-1h-1 2zm-5-2v1h2v1h-2 1-1v-1 1h-1v-1h-2l1-1h1l1 1v-1zm-4-1h3v1h1-2v-1h-3v-1l1 1zm0-3v-1h-1 1l1 1zm-2-1h1v2h-1v-2zm1-1h-2v1-1h1l1-1v1zm-2-2h-1l1-1v1zm1-1h-2 1v-1h1v1zm0-5h-1v1h-1v-1h1zm1 1v3h-1v-2h1-1v1h-2 1v-1h-1 2v-1h-1 1v-1h1zm-3-1v-2h1v2zm3-1v1h-1v-1h-1v-1l1-1v1h1v1zm-2-2h1zm3-6h-1v-2h1v1zm-2-3h-1 1zm4 0l-1-1h1v1zm2 0h-1v-2l1 1h1-1v1zm-2-1h-1v1h1v1h-1v1-1h-1v-1h-1v-1h2v-1h1zm-1-2h1-2 1zm-2-1h-1 1zm3-1l-1 1v-1h-1v-3h1v-1h1l1 1h-1v1h1-1v1h1l-1 1zm-16-29zm-93-20zm673-144v1l-1 1v2h-2v1h-3l-1-1v-2l1-1h1v-1h4v-1 1h1zm-2-3h1-1zm7-2zm1 0h-1 1v-1 1zm2-4zm14-5zm5-3zm4-8zm3-5zm1 0v-1zm0-1v1l-1-1h1zm-2-4h-1v-1h-1 1l1 1zM51 340zm249-73zm373 46h-1v-1h1zm2-1v1-1h-1 1zm-3-1h-1v-1h1v1zm-207-81h-1v-1h1zm3-1v-1 1zm-1 0h-1v-1h1v1zm2-4l1 1h-1zm-4-1h1-1v1l-1-1h1zm4 0zm-6 0h-1v-1h1v1zm-1-1v-1 1h1zm-175-14h-2v-1h2v1zm15-1h-1v-1 1h1zm-1-1zm0 0h-1v-1 1zm-2-1h1-1zm-2 0h-1v-1 1zm-8-2h2v1-1h2v1h2l1 1h1v1h3l1 1h1l1 1h1v1h4v2h3v1h1v1h-10l1-1v-1h-3v-1h-1v-2h-4l-1-1h-1v-1 1h-2v-1h-3l1-1h-4v1h-3v1h-2 1v-2h1l3-1h2v-1h1zm40 34h-1v-1 1h1zm-39-22h1-1zm5-1h-1 1zm0 0zm344-47l1-1h3v-1h2-1l-1 1v1h-1l-1 1h-3v-1l1-1zm-66-59v-1 1zm8 0h-2v-1h2v1h-1 1zm-16-1zm-1 0v-1h1zM352 228h-1v-1h1v1zm222-121h1v1h-2v-1zm-3 0h-1 1zm6 0h-1 1zm-7 0h-1 1zm2 1l-1-1h1v-1 2zm13-1h-1v-1l1 1zm-13-2v2h-2v-1h-1v-1h2zm6 0h-1 1zm-7 0v-1h1-1zm6 0h-1v1h1-1v2h-1v-2h-2v-1h1v-1h1v1-1h3-1zm-4-5h-1 1zM320 215v-1h3v1h2l1 1h1-1v1h3l1 1v1h-8v1h-1v1h-1v-1h-1v-1h-2v1h-1l-1-1h-1l-1 1v-1h-2l1-1h2l2 1h1v-1h1l-1-1v-1l-1-1h-1v-1h3v1h2zm-26 69v-1h1v1h-1zm-31-5h-1 1zm3-1h-1l1-1v1zm-3-1h-1 1v-1 1zm-3-1h-1 1zm2 0h-1l1-1v1zm-2-1v1h1v1h1l-1 1h-2l1-1h1-1v-2h-1 1zm38-4zm364-44h-1v-1l1 1zm-1-1h1-1zm-177-36v1-1zm8-1v1h-1v-1h1zm-6 0h1zm3-1v1h-2v-1h3zm7 1h-1 1v-2h1v1l-1 1zm-11-1h-1v-1h1v1zm12-1v-1h1v1zm47-30h-1 1zm-1-1l1-1v1zm6-3v1-1l1 1h-1v1h-2v-1h-1l2-1h1zm3 0h-1 1zm56-57h2v1h-3v1h-1l1-1h-1v-1h2zm2 0h-1 1zm-1-1l-1 1v-1h-2 2v-1 1h1zm-4-4zm1 0h-1 1zm1 0h-1 1zm-1 0v-1 1zm-1-1h-1zm-1-8h-1 1zm11-6l-1 1v-1h1zm458 265h-1 1zM-7 338zm0-4v-1 1zm1091-1h-1v1-1h1zm-1094 0h-1 1zm3-2zm1094-1zM-8 330zm2 0zm1091-1zm-1-1v1h1v1h-1v1h-2l-1-1v-1l1-1h2zm3 0zM-8 328v-1 1zm1089-1h-1 1zm-1092-1v1-1zm1100 1v-1 1zm-1100-1h1-1v1zm0-1v1-1zm1100 1v-1 1zm-1100-2zm1100 0v1h-1v1h1v-1 1h-3v1h-1v-1h-1 2v-1h3v-1zm-9-11zM357 435h-1v-1h1zm3-1zm-7-1v1h-1v-1zm2-1h3v1h-1l-1 1h-3 1l1-1h-1 1l-1-1zm0 0zm4 0h2-1l1 1v-1h1v1h-1l-1 1h-2 1l-1 1v-1 1h-1v-1l1-1h1-1v-1h1zm350-92h-1v-1h1l1 1zm-32-25v-1zm-324-84h-1l1-1h-1 1zm-1-5zm-1 0h-1v-1h1v1zm1-1h-1 1zm216-81v4h-1v1-1h-1v-1h-1 1v-1h-1 1-1v-1h2v-1 1-1h1-1 1zm-33-9v-1zm-16-48h-1 1zm0-1h-1 1zm-2-1h-1 1zm2 0h-1v1-1h-1 1zm0 0v-1 1zm518 174zm-14-5h-1 1zm-21-1v-1 1zm1-1zm-42-6zM536 120h-2 2zm-10-8h1-1v1h-1v-1h1zm-9-5h1v-1h2l1 1 1 1h-1 1v1-1 1h-1v1h-1v3h1-1v2h-1 1-1v1-1h-1v1-1 1h-3v1h-1v-1h-1v1h1-2l-1 1h-2v-1h1-2 1l1-1-2 1h-1l1-1h1-2v-1h2l1-1h2-3 1v-1h2v-1h-4v-1h2v-1h-1v-1l-1 1v-1h6v-1h-2 1v-1h1v-1h2v1-1h1-1 2-1v1zm6-1v-1zm-3-2v1h-1v-1h1zm1 0h-1 2-1zm0-1h-1v-1h1zm-2-1zm-3-1zm4 0h-1 1zm-3-1h-1 1zm3-1v1h2-1v1-1h-3v-1h2zm-3 0h-1 1zm3-2h-1v1h-1v1l-1-1h1-1 1-1v-1h2l1-1zm10-1l-1 1-2 1v1h-1 8l-1 1v1h-1v1h-1l-1 1h-1 2-1l-1 1h-2 6v1h1v1l1 1v1h2v1h1l1 1h-1 1v1h-2 1l1 1h1v1h-1l1 1v-1h3l1 1v2h-1v1h-2 1l-1 1h-1 3v1h-2v1h-6v-1 1h-6l-1 1-1 1v-1h-3v1h-2l1-1h1v-1h1v-1h1l1-1h1l1 1 1-1h1v-1h1-1l-1 1h-3v-1h-4v-1h3v-1h1v-1h-1v-1h-1v1-1h1v-1h4-1 2-1v-3 1h-1v-1h-1v-1l1-1h1-3v1h-1v-1 1h-1l-1-1v1l-1-1h1v-1h1v-1h-1v-1h1-1v-1 1h-1l1-1h-1v1h-1 1v1l-1 1h-1l1-1v-1 1-2l1-1h-3 1v-1h1v-1h-1v-1h1-1l1-1h1-1l1-1h1-1v-1h7zm0 0v-1zm-1-1zm1 0h1-2v-1h1v1zm1-1h1zm0 0h-1 1zm4-4h1v1h-1v1-1h-1 1v-1h-1 1zm1 0h-1l1-1v1zm1-1h-1v1-1h1zm-6 35zm-41 117zm0 0h-1 1zm1 0v-1 1zm-1-1zm1 0h1v-1 1zm-1-1zm76 25v1h-1v-1h1zm46-98h1v1h5v1l1-1v1h-5l-2-1h-1v-1h1zm10 1v-1 1zm-13-3v1-1h1zm15 1v-1h1v1h-1zm-7-1zm3-1h-1 1zm4 0zm-10 0h-1 1zm3 0h-1 1zm4 0l1-1h1l-1 1zm-3 0v-1h1-1zm-3-1h-1 1zm7 0h-1 1zm-6 0v-1 1zm1 0h-1l1-1v1zm-3 0v-1zm0-1h-1 1-1 1v-1 1zm1-1v1-1zm2 1h-1v-1l1 1zm2-1h-1 2-1zm-3 0h-1 1zm-3 0h1zm8-1v1h1-2l1-1zm-18 0v1h-1v-1h1zm12 1v-1h-1 1v1zm-4-1zm-9-1h1l-1 1v-1h-1 1v-1zm0 0v-1 1zm17 0h-1v-1h1v1zm-17-1v-1 1zm12-1zm-3 0v1h2v1h1v1h-1v-1h-2v-1h-1v-1h-1 1zm1-1v1h-1v-1zm0 0zm8 0v1h-1v-1 1l-1-1h2zm-20 0v-1h-1v-1h1v1zm17-2h-1 1zm0-2v1-1zm-2 0h-1v-1h1v1zm-265 87h1zm48-149l-1 1v-1h-1 2zm28-14h-1v-1h1v1zm-43-13v1l-1-1 1-1 1 1h-1zm-5-1l1 1h1v1h-7 2-1v-1h-3v-1h2-2 1v-1h4l1 1zm3-3v1l-1-1h1zm80 0v1h1-2l-1 1-1-1h-2l-2 1h-1l1-1v-1h7zm-86 0h-1v-1h2v1zm-4-5h-4 3v-1h1zm113-8h2v1h-5v-1h2zm-2-2l-1-2h1v1zm-162-4h-3l1-1h2l1 1zm164-1h-1l1-1h1v1zm-3-1h-1v-1l1-1v1zm4-6h-4 1l2-1h2v1zm-3-6h-2l-1-1h2l1 1zm-80-1h-4l-2-1h-2l1-1h2l3 1h2v1zm45-4h9l4 1h-19 22l1 1h9v1h-5l-2 1h-18v1h1l2-1h11l2 1h4v-1h6v2h-1l-1 1h-2l-1 1h-1 1l3-1h4l2-1h10l1-1h12l1 1h2l-2 1h-6l-1 1h1-3l-1 1h-4 2v1h-12l-1 1h3v2h1-2l-1 1h-2l-2 1h1l-1 1-1 1v1h1v-1h5v1h1-4l1 1h6v1h-8l-2 1h-1l-1-1-1 1h2l1 1h5v1h1v1h1v1h-6v1h-2l-1-1v1h4v1h1v-1h3v1h1v1h-4l-2 1-1-1h-1l1-1h-1v1h-1v1h6v1h-1v1h-8l-2-1h-4v-1h-1v1h2l-1 1h-6 2-3v1h2l1-1h11v1h3v2h-1v1h-1v-1h-4l-1-1-1-1h-4l-1 1h-1 4v-1h1l1 1-1 1h-1 4l1 1h3l1 1h1-2v1h3v3h-2v-1h-1v-1 2h-2l-2-1h-1v-1l-1-1h-3v-1h-5l1 1h4-1v1h-8 1l1 1h-2l-2 1h8-3v1h1v-1h7l3 1h5-3l1 1h-3 1-2v1h-3v1h-1l-1 1h-4l-2 1h-7v1h-1l-1-1v1h-3l-1-1h-1 1v1h-1 1-1v1h-2l-1 1-1 1h-1v1h-1v1h-2l-1 1-1-1h-1 1v1h-1l-1 1v-1h-1v1h-3v1l-1-1h1-1l1-1 1-1h-3 1l1 1h-1l-1 1v-1h-1l1 1h-1l-1 1h-4 2v1h-5 1v1h1l1 1h-1v1h-3 3v1l-1 1h-1v1h-3 1l1 1h-4l1 1h1v2h-1l1 1h-1v1l-1 1-1 1h-2 2v2h-2 1-3v-1h1-1v1h-1l-2-1 1-1h1-4v-1h1v-1h-1v1h-6 1-2v-1h-2v-1h-1 1l-1-1h1v-1h1-2v1h-1v-1h1-2v-1h-1v-1h1l1-1-1 1h-2v-1h-1v-1h-1v-1l-1-1h4v-1 1h-4l1-1h2v-1h1v1h1v-1h-2v-1h-1 1v1h-1l-1 1 1-1h-1v1h-1v1h-1v-2l-1-1-1-1h2l1-1h2-2l-1 1h-4v-1l1-1h-1 1l2-1h1v-1h2-1l-2 1h-1l-1 1h-2v-1h1v-1h3-3v-1 1l-1-1h-1l1-1h1v-1h7l1 1-1-1h1-7l-1 1h-1v-1l1-1h6v-1h1-2l-1 1h-1l-1-1h-2l1-1h2l2 1h1l1-1h1-2l1-1h2v-1h-1v1h-1v-1h1v-1h1v-1h-7v-1h-4l-1-1h-1 7l2 1h3-1v-1h-1v-1h-1 2-4v-1h-1v1h-1v-1h1l2-1h1-5 1-1v-1h-1v-1h-1 1v1h1l-1 1h-1v1h-4l-1-1 1-1 1-1h-2 1-1l1-1h2v-1h-3l1-1h-1l-1-1v-1l-1-1h-2l-1 1v-1h2v-1h1-2v-1h-3l-1-1h-1l1-1h-2l-1-1h-3l-2-1h-19l1 1h-4l-1-1h-3v-1h4-5v-1h-1 1-4v-1h14v-1h1-14l1-1h1-7l-1-1h-1 1v-1h6l1-1h5l1-1h9l1-1v-1h1l1-1h1-9v-1h4v-1h3l1-1h3l1 1v-1h6v-2h8l2 1h4-2l-2-1h-4v-1h12l2-1h1l1 1h1v2l1-1h1v-2h1l3 1h1l1 1h5-1l-2-1h-1l-1-1h7l4 1h3l4 1h2v-1l1-1h-1l-3-1h13-16l1-1h17l1-1h1l1 1h5-2v-1h24zm534 214l1-1v1h-1zm-93-27zm-1 0zM764 437v1h-1v-1h2-1zM275 225h-1 1zm2 0h-1 1zm316-81v1l-1-1zm-3 0h2-2zm2-1h-3 2zm-2 0h-1v-1h1v1h1zm-4-2zm0-1h-1zm-1 1v-1h-1 1zm0-1v-1h-1v-1 1h2-1zm-1-2zm-1 1v-2 1zm1-1v-1h-1 1zm-267 80h-1l-1-1h1zm0-4h-1 1zm598 94h-1 1l1-1v1h-1zm-4-1h1zm5-1v1-1zm-10-2h1v1-1 1h1v1h-2l-1-1h-2v-1h-1 3v-1h1zm13-1h1l1-1v-1h6v-1 1h1-1v1h-2l-1 1h-2v1h-1v1h-1v1h-2l-1 1v-3h1v-1zm-27-1v-1 1zm23-1h-1 1zm-11 1v-1zm12-1h-1v-1h1zm-21 0v1h-2 1v-2h2v1zm24-1v1h-1v-1 1l1-1zm-1 0h-1v1h-1v-1h2zm45 1h-1v-1h1zm-65 0v-1h1zm5-1zm17 0h1v1h-2v-1zm10 0h-1zm-16 1l-1 1h-8v-1h1v-1h2l1 1h5v-1h1-1 1v1h-1zm25-1v1-1h1-1zm-39 0v1h1v-1h1v1-1h1v2h-4l-1 1h-2v-2h3v1l1-1h-1v-1h1zm-8 0l1 1h-2v1-1h-2v-1h2zm44-1v1h-1v-1h1zm-10-1v1h-3 1v-1 1h1v-1h1zm2 0h1-1zm34 2v1h-2v-2l1-1h3v1h-1v1zm-22-1v-1l1-1h1-1v2h-1zm2-2zm-53 0h-1 1zm43 0zm-24 0v-1 1zm-21 0h-4l1-1h4l-1 1zm5-1h-1 1zm59 0h-1v-1h1zm-90-1h-1 1zm90 0h-1 1zm0 0v-1zm-1 0v1h-1v-2l1 1zm-83-2v1h3v1h1v1h6v-1h3v1h3v1h1v1l1 1h2v-1h1l1 1v3l-1-1h-2l-1-1h-1v1h-2v-1h-5l-2-1h-3v-1h-1v1h-2l-1-1h-4v-1l-1-1h-2v-1 1l1-1v-1l1-1h2v1h1v-1h1zm51 0zm-11 1v1-2zm-24-1v-1 1zm62 0h-1v-1h1v1zm6-1v2h-2v-2h2zm-6 1v-1l1-1v1l-1 1zm-93-1l-1-1h1v1zm65-1h-1 1zm-5 1l-1-1 1-1v1zm2-1h-1v-2h1v2zm1-2v1-1 3-1 1h-1v-3h1v-1 1zm32-1h-1 1zm-31 0h-1v-1h1zm16-2h-1 1zm-1 0h-1v1-1h1zm1 0zm-37 0h-1l1-1zm34-1zm-35 2l-1-1h1v-1 2zm33-3v1h1v1h-1v1h-1l-1-1h-1v-2l1 1v-1h1zm3 0zm-64 0h-1 1zm1 0zm68 0h2l1 1h1v2l-1-1h-2v-1h-1v1l-1-1h-2v1l-1-1h-1v1-2h5zm-89 1l-1-1h1v1zm24-1v1h-1v-1l-1 1v-2h2v1zm-25-1v1-1h-1 1zm105-2l-1 1v-1h1zm-106 1h-1v-1h1v1zm80 0v1-2 1zm-7-1zm7-1l1 1h-3 1zm-9 1v-1zm22-1l1 1h-1 1-3l1-1h1zm-16 0h1v1h-3v-1h1zm32 0h4v1h-2l-1-1h-1zm-81 0h-1 1zm-9 0v1l1 1v1h1v1h-2v-2h-1v-1h-2 1v-1h2zm54 0h-1 1zm14 0h-3v-1h2v1h1zm-16-1h1-1 2-1v1-1 1h-1v-1 1h-1v-1h1zm-41 0h-1v-1h1zm77-1zm-109 2h-1l-1-1 1-1 1 1v1zm97-1h-1v-1h2l-1 1zm0-2v1h-2 1v-1 1l1-1zm14 0h1l1 1h1l-1 1h-1v-1h-1v-1zm-25 0zm10 0v-1zm-27-1v1-1 1-1zm59 27l-1-1-1-1-1-1v-1 1h-2l-1-1v1h-1l1-1v-1h-1v-1h1-1l-1-1h1v-1h-1v-2h-1v-1h1-1l-1-1-1-1h-3v-1h-4l-1-1v-1h-3v-1h-1v-1h1v-1l-1 1v2h-1l-1 1v-3h-1l-1-1h-1l1-1h1l1 1v-1l1-1 1 1h1v-2 1h-5v-1h-1v-1l-2-1h-1 1v-1l1-1h1l1-1h2l1 1h3v5l1 1v1-1l1 1v1h2l1-1 1-1v-1h2l1-1 1-1h4v1h1l1 1h4v1h1v1-1l2 1h2l1 1h3v1h1v1h2l1 1h1l1 2v2h2l2 1h2v1h1v1l-1 1h-2v1l1 1h1v1h1l1 1v1l1 1v1h2v1h2v2h3l-1 1v-1 2h-1v-1h-2l-1-1h-5v-1h-1v-1h-1v-1h-1v-2h-1v-1h-1v-1h-3v-1h-2v1h-1v-1h-1l1 1-1 1v-1 1h-4v1l1-1 1 1h1v2h-1l-1 1v-1h-5zm-112-27h1l-1 1v-1zm71 0v1h1v1h-1v-1h-1v-1h1zm-1 1h-1v-1h1zm-72-1h-1 1zm83-1h1v1h-1l-1-1v1h1-2v-1h1zm-99 2h-1v-1h1l-1-1h1v1zm19-1v-1l1 1h-2v-1h1zm76 0v-1h-1 1zm-7-1zm-69 0l-1-1 1 1zm-4-2h-1 1zm73 0zm0 0v-1zm-73 0v-1 1zm1 0v-1zm2-1l-1 1v-1zm-4 1h-1l-1-1h2zm1-1zm-1 0h-1v-1l1 1zm3-1v1-1 1zm2 0v1h-1v-1zm-7 1l-1-1h1v1zm-15-1h1v2h-1v-1l-1-1v-1zm15 0h-1v-1h1zm69 1h-1v1h-1v1h-4v-1 1h-4l-1-1-1 1h-1v-1h-1v1h-1v4h1l1 1h1l1-1h2v-1h4v1h-2v1h-1v1h-2v1h-1v1h1l1 1 1 1v3h1v1-1 1h1-1v1-1l-1 1h-1v1h-1l-1-1v-1h1l-1-1-2-1v-1h1v-2h-2v1h-1l1 1v7h-3v-3l1-2h-1v-1h-2v-3h1v-2h1v-3l1-1v1-4l1-1v-1h2v-1h2v1h9v-1h1l1-1h1l-1 1v1zm-71-3v1h-1v-1h1zm79 3h1l1-1v-1h1v2h-1v1h1v1h1-3v2l1 1v1-1h-1v-1h-1v-4h-1v-1h1v-2l1-1v3l-1 1zm-93-3v-1zm96 0h-1v-2h1v2zm-10-2v-1 1zm-88 1h-1l-1-1-1-1h1v1h2v1zm38-2h-1 1zm-10 0zm2-1v1-1h-1 1zm35 0h-1 1zm24 0v-1h-1 1zm4-2v1l-1-1h1zm-1 0zm-27-1v1l-1-1h1zm-29 2h-1l1-1h-1l1-1v1zm56-1v-2h1v1zm-92-4h3l1 1v1h1v1l1 1h1v1h1l1 1h1v1h1v1l1 1 1 1v-1h1v1h1v1h1l1 1v1h1v1h2v1h-2 2l1-1v1h1v1l-1 1v1l1 1h2v3h1v2-1h2l1 1 1 1v2h-1l1 1-1 1 1 1v1l-1 2v1-1h-2v1-1h-1v1h-1v-1h-1v-1h-1v-1h-1l-1-1h-1l-1-1v-1l-1-1-1-1h-1v-2h-1l-1-1v-1l-1-2v-1l-1-1v-1h-1v-1h-1v-1h-1v-1l-1-1v-2l-1-1-1-1h-1l-1-1v-1h-1v-1l-1-1-1-1h-1l-1-1-1-1v-1h-1v-2h2v1h1zm-4-2zM526 109l-1 1h-1l1-1h1zm300 145h-1v-1h1v1zm-1-1v-1zm0-2h-1 1zm0-1zm-63 0zm62 0h-1v-1zm-1-3h-1 1zm-1-4h-1v-1h1zm-61-2zm61-1zm1-2v1-1zm-1-2v-1zm0 4v-2h1l-1-1v-1h1v-2 4h-1v1h1-1zm13 72zm0 0zm27-5zm-101-9h-1v-1 1-1h1zM509 110h-1 1zm202 83h-2v1h-1l1-1h1l1-1v1zM492 73l1-1h1-1v1h1v1h1v1-1h1v1h1v1h1-1v1h-2v1h-2v1h-4v1h-5v1h-7l-1-1h1-3 1-5v-1h2l1-1h-1 1v-1l-1 1h-1v-1h-5 2v-1h4-2l1-1h1-8 2v-1h-1 3-2 1v-1h-1 4v1-1h-1 1v-1h-2 3l1 1h2-1l1 1h-1l1 1h-1 1v1l1-1v-1h1v1h1v-2h1v1h2v-1h3v1h1l-1-1h6v-1h-1 3v1zm84 90h-1v-1h1v1zm11-5l-1 1v1h-1v1h1-1l1 1h-1v1h-2v-1h-2v-1h-2v-1h-2v-1h1v-1 1h1v-1h1v1h4v-1h3zm-22-2v-1 1zm17-5h-1v-1l1 1zm-18-1v-1 1zm4 0h1v2h-1 1v1l-1 2h-1v1h-2v-5h-1v-1h2v-1h2v1zm3-6h-1 1zm-268 75h2l1 1h-3v1l-1-1h-1v-1h-1 1v-1l1 1h1zm230-94h-1v-1l1 1zm385 76h-1v-1l1 1zm1-1v1h-1v-1h1zm3-1zm51-5v-1l1 1zm-42 0h-1v1h-1 1-1v-1h1v-1 1-1h1zm2-4zm1-1zm1 0h-1v-1h1v1zm3-6l-1-1h1zm1-1v-1h1-1v1zm-4-4h1zm2-2h1zm-1 1v-1h1zm-4-2h1-1zm34-1zm-33 1v-1h1zm2-2l-1 1v-1h1zm1-1h-1 1zm4 0h1v1h1v2l-1 1v2l-1 1h-1 1l-1 1h-1 1v-1h-1l1-1h-1v2l-1-1v-2l1-1v-2h-1v1h-2v-1h1v1-1h-1v-1h2v-1h1v-1h1v1zm3-1h1l-1 1v-1zm1 0zm-10 0v-1zm16-1v1h1v1h-1l-1 1h-3v1h-1v1h-1l1-1h-1v-1h-2 1l1-1h1v-1h2v-1h2zm0 0h-1v-1l1 1zm1 0h-1 1v-1h1l-1 1zm-17 0v-1h1l-1 1zm31-1zm-18-5h-1 1zm15-5h-1 1-1l1-1v1zm9-10v-1 3h1v1l1 1v2l-1 1v1h-1v1h-1v4h-1v4h-1v2h-2v-1h1v-1h-1v2l-1-1h-1v2h-1v-1h-1v1h-4 1-2v-1l-1 1 1 1h-1v1h-1v1h-1v1l-1-1h-1v-2h1v-1h-5v1h-5v2l-1-1h-3v-1h2v-1h1l1-1h1v-1h1v-1h1l1 1v-1l1 1 1-1h4l1 1v-1h1v-2h1v-1h1v-2l1-1h1v1h-2v1h1v1h1v-1h1l1-1h2v-2h2v-2h1v-1l1-1v-2h-1l1-1v-2h1v-1h1v1h2v-1h-2v-1h1zm-6-3zm6-9h-1 1zm-1-1v1-1zm8 4h1l1 1h2v-1h1l-1 1v1h1v1h1v-1h1l-1 1h-2v1h-4v1h-1v2h-1v-1h-2l-1-1h-2l-1 1-1-1h-1v1h1l1 1h-1l-1 1h-1v-2h-1v-1h1v-1h1v-1h3v-2h1v-5h1v1h1l1 1 1 1h1l1 1zm-286-2v-1 1zm1 0v-1 1zm7-2zm-36 146v-1h1zm191-40h-1zm-1-1v-1zM75 310zm-12-18zm-57-3zm7 0zm3 0zm50-2v1l-1-1h1zm-50-2zm-2-2v1h1-1 1-1v-1 1-1zm1059-4v-1 1zm-16-1zm15-1v1-1zm-4-5zm0-1zm0-1v-1 1zm0-1h-1 1zM58 269l1 1h-1v-1zm1009-3zm1-1l-1 1v-1zM52 263zm296-40v-1 1zm0-1h-1 1zm577-49v1-1l1-1 1 1h-1zm1-3zm-1 0h-1l1-1v1zm4-1zm-4 0h-1v-1l1 1zm5 0v-1zm2 0v-1zm-7-6v1-1zm14-3v1-1zm-13 0h-1v-1l1 1zm-239 24l-1 1v-2 1h1zm-334 49h-1v-1h1zm430 14v1-1zm0-1v-1zm0-1h1l1 1h1v2h1v1h1v1l1 1v4h-1v1h-2v1h-2v-1h-1v-8l1-1v-1h1-1l-1-1zm-437-25zm346 107h-1l1-1zm-5-11h-1v-1h1v1zm3-3h1v2h1v4l1 1v4h-1v-1l-1-1v5h-1v5h-1v1l-1 2v3l-1 1v1l-1 2-1 1v3l-1 1v3h-1v1l-1 1h-3v1h-2l-1-1h-2v-1h-1v-1l-1-1v-2h1l-1-1v-1h-1v-3l1-1v-1h1v-1l1-1v-1h1v-3l-1-1v-2l-1-1v-2l2-2v-1l1-1h2l1-1h1l1 1v-2h2v-1l1-1v1-1h2l-1-1 1-1-1-1h2v-1h1v-3h1v-1h1v1zm73-48zm1-3h-1 1zm-505-44h-1 1zm-59 0v-1 1zm73-5v-1h1zm1-3zm-60-1h-1 1zm-11-8h1zm-5-1v1l-1-1zm3-1v-1zm-4 1h-1v-2 2h1zm3-5v1h-1v-1h1zm-13-6v-1 1zm-9-2l-1-1h1zm18-1v1h-1v-1h1zm-3 0l-1-1h1v1zm-4-8h-1 1zm868 79h1-1zm6-4v1h1-1zm-1 0h1-1zm-7 0h-1 1zm-6-12zm-465-76l-1 1v-1zm-1 0h-1 1zm256 80v-1 1zm0-3v-1zm1 0v-1zm-1-2v-1 1zm1-1v1-1zm-1 0h-1 1zm1 0v-1 1zm-1-1v-1 1zm0-1h-1 1zm1 0h-1v-1h1zm-1-2zm-10-8h-1l1-1zm-1-1l-1 1v-1h1v-1 1zm9-1zm-12-7v-1 1zm0-3h1v1h-1v-1zm0-1v1-1h-1zm-2 0zm160 18zm1-3zm0 0v-1h1-1v1zm0-4zm0-5l1-1v1zm0-2zm-495-3v-1zm-140 9zm366 114h-1v-1h1v-1l1 1h-1zm164-70v-1zm-22-1v-1 1zm-8-1h-1 1zm-4-7v-1h1zm-1-4v1l-1-1h1zm53-2zm154 91zm1-4l1 1h-1v-1zm-2 0v-1h-1 1v-1h-1 1v1h1zm-2-2v-1 1zm-7-1h1l1 1h1v1h1v1h1v1h1l1 1h1v1h-2v-1h-2v-1h-1l-1-1-1-1-1-1v-1h-1zm-13-3v-1 1zm24 30zM561 261v1-1zM20 333zm311-95h-1v-1l1 1zm16-16v-1zm-1-1zm205-104h-1 1zm3-4h-1l1-1zm1-1h-1zm0 0h1zm2 0h-1 1zm1-1v1-1zm2 0h-1 1zm-5-20h-1v-1zm-1-3zm10-7h-1 1zm1-1h-1 2zm8-3h-1l1-1v1zm3-3l-1 1v-1h1zm1 0v-1h1zm0-1h1-1zm2-5h-1v-1h1zm2-2h1v1h-3 1v-1h1zm4-2l1 1h-3 1v-1h1zm2 2l1-1h2-1l-1 1h-3l-1 1h-1v-1h2l1-1h1l-1-1h1l1-1v1h-1 1v1h-1zm5-4l1 1v-1l1 1v1h-4 1v-1h1v-1zm39 0h-1v-1h1v1zm-29-1h-1l1-1h1zm-4 0h1-1v1h-3v1l-1-1h2v-1h1v-1h1v1zm1-1h1v1h-1v-1zm12-1v1h-2 1l1-1zm1 0h-1 2zm-1 0h-3v1h-1v-1h-1 4zm6-1h2-3 1zm-105 1h-1v-1h4-2zm86-11h-1l-1-1h2zm7-13h2v1h4-1v1h5l-2 1h-2l-1 1h-2v-1h-5 1v-1h1-1l-1-1h-1v-1h-1 4zm16 0l-1-1h1l1 1zm-48 0h2v1h1-1l-1-1h-2l-1-1h2v1zm55-1h2-6 3zm-38-3h4v1h-1 4v1h-1 6v1h2v1h-6v1h-1v1h-2v1h-1l-1 1h-1l-1 1h1-1v1h-3v-1h-1l-2-1h-3v-1h3l4-1h2-10v-1h1l1 1v-1h8v-1h-2 1-4v-1l-1 1h-1v-1 1h-1 1-1v1h-5v-1h-3v-1h-1 3-1l-1-1h1-4v-2h5-1 6-1l-2 1h-2 4l1 1v-1l1-1h1l1 1h1l1 1 2 1v-1h-1v-1h-1v-1h1l1-1zm48-1h-3 7zm-42 0h-1v-1h1zm7 0h5v-1h2v1h3v-1h1v1h8v1l-3 1h-2l-1 1-1-1-1 1h-6l1-1h-10 3v-1h1-8 1l1-1h-3 5-1 2l-1-1h3v1zm446 247v-1 1zm7 158v1l-1-1h1zm-9-5h-1 1v-1 1zm6-12h-1 1v1h-2 1v-1zm-5-3v-1zm1-2zM1 410zm0-1H0v1h-1v-1h1-1zm1069-9l1-1v1zm-2 1h1l1-1h1-1v1h1v-1h1-1v1h1-1v1l1 1h-1v1h-1l-1 1v1h-1v1h-2 1v1h-1 2v1h-4v1h-2v2h-1 1v1h-1v2h-1l-1 1-1 1h-6l-1-1h-3l1-1-1 1v-1h1v-1h-1 1v-1 1h1v-1h-1 1v-1h1v-1h1l1-1h1v-1h2l1-1h1v-1h2-1 1v-1h2v-2h1v-1h1v-1h1v-2l1-1h1v1h1v1zm7-15v-1 1zm-7-4h1v-1 1h2v1h1v2h1v3h2v1-3 1h1v1l1 1v1h1l1 1h3v-1h3-1v3h-1v2h-1v-1h-1v1h-1v2l-1 1v1h-1v1h-1v1h-1v1h-2v-1l-1 1v-2h1v-1l1-1h-1v-1h-2v-1h-2v-1l1-1h1l1-1v-2h1l-1-1v-1l-1-1h1v1-1h1-2v-1h-1v-1l1 1v-1h-1 1-1v-1h-1 1v1h-1l-1-2v-1h1-2v-2h-1v-1h1v2zM16 304zm-4-3zm706-88l1-1v1zm-428 40h-1v-1h1zm7-3zm1 0v-1 1zm-10-4h-1 1zM147 350v-1zm759-91l-1 1v-1h1zm3-3v1h1-2l1-1zm3-1h-1 1v-1l1 1h-1zm11-1v-1zm-8-2v1h-1v-1h1zm-18-1h-1v-1h1zm1-1h-1 1zm22-3zm-3 0h-1 1zm7-1v-1zm0 1h1v1l-1 1h1v2h1v2l-1 1v2l-1-1v-2h-1v1h-1v1h1v2l-1 1v-2l-1 1h-1l-1-1-1-1v-2h1v-1h-1l-1-1h-1v1h-1v-1 1h-1v-1l-1 1v1l-1 1-1-1h1v-2h1v-1h2v-1h1v-1l1 1 1 1h-1 2v-1h1v-1h1l1-1v1-1h1l-1-2h1l1 1zm0-2v-1 1h1-1zm-2-1v1l-1-1h1zm-2 1h-1v1h-1l-1-1h1v-1h2v1zm3 0v-1h-1 1v-1 2zm-18-2v-1l1 1zm14 0v-1 1zm-5 0h-1l1-1v1zm1 4h-1v-1h-1v-1h1v-2h1v-1l1-1v1h1-1v2l-1 1v1h1v1h-1zm1-1v-2h1v-2h1v-1 3h-1v1l-1 1zm1-5zm-20 8l1-1 1-1h1v-1h1v-1l1-1 1-1 1-1h-1l1-1v-1 2l1 1h-1l-1 1h-1v1l-1 1v1h-1v1h-1l-1 1zm8-9zm15 0h1v2l1 1v1h-1v-1 1h-1v-2h-1v-2h1zm0 0h-1v-1h1v1zm1 0h-1v-1zm-8 0h2v1h-1v1h-1l-1 1v-4h-1 2zm-7-1h-1v-1h1v1zm0-1h1-2v-1l1 1zm8-1h-1 1zm8 0v1h1-1 1-1v2h1v1h-2v-2h-1v-1h-1v-1h2zm-5 0l1 1v1h-1v-1h-1l-1 1v-1l1-1h1zm-4 0zm-1 0v1-2 1zm5 0v-1zm-1-1h-1v-1 1zm-8-2h2v3l-1 1v-1h-1v-2h-1v-1h1zm4 0v1l-1-1zm-6-1zm13 0v1-1l-1 1v-2h1v1zm-7-1zm0-3v1h-1v-1h1zm-3-11h1l1 1h1v-1l1 1-1 1v1l1 1v2l-1 1v1h-1l-1 1h1-1v2l1 1v2h2-1 1v-1h1l1 1v1h1v-1l1 1v2h1v2-2h-1v1l-1-1-1-1v-1h-1l-1-1v1l1 1v1l-1-1-1-1-1-1-1 1h-2v-2h1v-1h-2v1-1h-1v-2h-1v-3h1v1h1v-8h2zm3-1h-1 1zm-3 0v-1 1zm1-1zm2-3v-1zm-1-2v1-1zm29 55zm10-14v1-2 1zm58 58h1l-1 1v-1h-1zm2 0zm-10-3v1-1zm1-1v-1 1h-1v-1h1v1zm-2-2h1v1h-1v-1zm-1 0v-1 1zm7-2h1v1h-1v-1zm-27-1v1l-1-1zm23 1v-1h-1 1zm-23-1h-1 1zm13-8v-1 1zm25 2l-1 1h-1l-1-1v-1h-1v-2h1v1h1v1h1v1zm-27-3l-1-1h1zm23 0h-1v-2h1v1zm-27-3v1-1zm18-1h2v2h-2v1h1v1h-2v1h-2v1h-5l-1-1h-2v-1h5v-2h1v2h2v-1h1v-1h1v-2h1zm6 0h-1v-1h1zm-4-3v-1zm-1-1h-1 1zm-1 0v-1 1zm3 6v-2h-1v-2h-2v-1h-1v-1h-1l-1-1 1 1h1l1 1h1v1h1l2 2v1zm-7-7h-2l1-1 1 1zm-8-1h-1 1zm-3-1h2-1v1h-2v-1h1zm9-1h-1v-1zm-665-60h-1 1zm7 0v-1 1zm-2-1h1v1h-4v-1h-1 1v-1h1l2 1zm584-65h-1 1zm-435 21h2-2zm-23-13h-1zm-2-3h1v1h-2v-1zm-8-1h-1v-1zm-2-1h1zm3 0h-1 1zm2 0h-1v-1h1v1zm-12-2h-1v-1h1zM116 339v-1 1zm7-7h-1v-1 1zm-14-1zm11 0zm-11 0l-1-1zm0-1v-1 1zm-26-1v1-1h-1v-1l1 1zm-2 0v-1zm-5-2v-1 1zm25-1h-1 1zm-1 0zm-24 0zm18-1v-1 1zm10-1h-1 1zm-8-1v1-1h-1 1zm19-16zm-1-2v1-1zm0 0h1-1zm-3-1zm2-2h-1 1zm-2 0h-1 1zm874-160zm0 0zm1 0zm1-1h1zm-1-2h1-1v1h-1l-1 1v1l-1-1h1v-1h1v-1zm7-2h-2v1h-2v1h-1 1v-1l1-1h1v-1 1h1l1-1h1v1zm-307-1h-1 1zm310 0v-1h1v-1h2-1v1h-1zm7-4l1-1zm4-3h-1 1zm3-3zm2-2h-1l1-1v1zm3-3v1h-2v-1h2v-1h1v1zm2-1h-1 1zm-2 0h-1v-1h1v1zm-40-11l1 1v2h1v3h-1v1h1v2h1v3l1 2 1 1v1h1v1l-1-1h-1v-1h-2l-1 1v1l-1 2v2h1v2h1l1 1v1h-1v-1h-2v-1h-1v2h-1v1-1l-1-1v-1l1-1v-5h-1l1-1v-5l1-1v-1h-1l-1-1v-5h2l1-1h-1 1v-1h-1v-1h1zm77-1h1-2v-1 1h1zm-94-1h-1 1zm2 0h1v1h-1l-1-1-1 1v-1h1v-1l1 1zm88 0v1-1h-2v-1h-1 2v1h1zm-49-12v-1h1zm40 1h-1 1v-1l2-1h1v1h-1l-1 1zM648 76h1-1 1-1zm105-4h-1l-1-1h2v1zm-83-1h-1zm23-7h-2v1h-4v-2h5zm52-1h-1v-1h1zm287 1h-1v-1h1v-1h1v1h-1v1h1-1zm24-2h-4v-1h5v1h-1zm-332-1v1h-3l-1-1h-2v-1h3v1h3zm18-2v1-1zm288 0h-1v-1h1zm-329-2h1v1h-2v-1h-1 1zm260 0h-3v-1h2zm128 1h-3v1h-1v-1l1-1h2l1-1v2zM-11 56h5v1h3v1h-8v-2zm787-2h-2 1v-1h3v1h-1zm6-1h-3v-1h3v1zm-15-1h-2 3-1zm139 0h-1v-1h1v1zm-198-1h3v1l-1 1h-2v1h1l-1 1 1 1 1 1 1 1h2l2 1h-4 1-9l-1-1h2-1 1v-1h-2v-1l-1 1h-1l-1-1-1 1h-1v-1h-1v-1h3v-1h1l1-1h-1 1-1v-1h2v-1h5zm47 1h-2v-1l1-1h2l1 1h1-1l-1 1zm19-1h-1l-1-1h-1 1zm-4 0h-1v-1h2v1zm203-2h2l2 1v1h-11 1l1-1h1l1-1h3zm-53 0h-1 1zm-126 0h-2v-1h1l1 1h1zm-2 0h-1v-1l1 1zm163 0h-2v-1l2 1zm15 0h-3v-1h3v1zm-172-2v1h-1v-1h1zm87 1h-1v1l-2-1h-2 1v-1h3l1 1zm-81-2h1-2 1zm-14-1h-2l1-1v1-1h1zm198 0l2-1 3 1h6v1-1h1l-1 1h-2l-1 1h-2l-2-1h-4l-1-1h-1v-1h1v1zm-34 0h-1v-2h1v1h1-1 1zm52-3v1l-1-1h1zm-39 1h1v1h2v-1h1v-1h1l1 1h5l5 1h-1l-1 1h1l-2 1h-3l-1-1h-1v-1h1-3v1h2v1h1-11v1h-2l-2-1h-2l-1-1h-1 1v-1l1-1 1 1-1-1h2v-1h3v1h2zm-133-1h-4 3zm1 0h1-1zm48-1h-2 1zm-46 0h-1 1zm158 0h-3 1v-1h3-1v1zm-249 1h-2l-1 1h-6l-2 1h-3l-3 1h-4v1h-2 1-1v1h-5v1l-2 1-1 1v-1h-1l1 1h-1l-1 1h-8l-1-1h1-2 1v-1h3v-1h1l2-1h1-2l1-1h2-2v-1h1l1 1 1-1h2v-1h2-1 2v-1h5v-1h2v1l1-1h-1 11l1-1h4v-1h9v1h-1 1-2l-1 1zm87-2h-3 1l1-1h2v1zm-20-1h-2 2zm54 0h1zm1-3h-4 4zm-4 0h-1 2-1zm-11-3l-1 1h1l1-1h3v1h4v1l-2 1h-11l-2 1h-4l1-1h2v-1l1-1h2v-1h2v-1 1h1v-1h2l1 1zm-81-1h4-5 1zm73 0h-1l1-1v1zm-23 0h-1l-2-1h-2l1-1h3l1 1h4-3zm-126-1h-4l1-1h3v1zm25 0h-2v-1h3v1zm116-1h1v1h-1 3v-1h1l1 1h3-1v2h-2 2v1h-13v-1h-4v-1h-4 1l2-1h2l1-1h8zm-145 0h-2 3-1zm17 0h-2 1zm4-1l1 1h-5 3v-1h1zm-10 1h-4 1v-1h2v1h2-1zm13 0h-2v-1h-1 7v1h-3zm-11-1h-2 2zm-21-1h4v1h-2l-1-1h-1v1h-8 1l4-1h3zm45 0v1h-9v-1h9zm-36 0h4l-2 1h-7v1h1-4 1-4l2-1h5v-1h3zm91 0h-4 5-1zm-58 0h-3v-1h4zm-20-1h5l1 1h3l-2 1h-4v-1h-5 1l1-1zm12 0l1 1h-5v-1h4zm-24 0h-1 2-1zm39 1h-3 5v-1h4v1h-3zm86-1h-5 5zm15 0v1h4-1l-1 1h-1 1v1h1-10l-1 1h-1l-2-1h-4v-1h4v-1h1-2 1l1-1h10zm-114 0h-2v-1h2v1zm-4-1h2-2v1h-8l1-1 2 1v-1h4zm17 0h-3v-1h-1 5v1zm-16-1h-1 5-1zm-50 199h1-1 1-1v-1 1zm-15-27h-1 1zm-1-1zm206 75h-1 1zM459 454h-1v-1h1zm-33-14h1v1h2v1h1-1v1l-1-1h-1v-1h-2l-1-1v1-1h-1 2zm96-116h-1 1zm-27-25zm554 12v-1 1zm-19 0h-2v-1l1 1h1zm17-3h-1 1zm-14-1h1l1 1h-2v-1h-1v-1l1 1zm0-3v1h-1v-1zm-6-1l1 1h2v1h-3v-2zm1-1l1 1h-1zm-3 1v-1 1h1zm-4-1h-1 1zm1 0h1zm0 0l-1-1h1zm-2 0l-1-1h1zm7-1h-1 1zm3-1l1 1v1l1 1v1l-1-1-1-1v-2zm-9 0v1l-1-1h-1 1v-1h1v1zm-3 0h-1v-1l1 1zm1 0v-1 1zm-1-1h-1v-1h1v1zm10 2h-1l-1-1h-1l-1-1v-1h-1 1v1h2v1h1v1zm-13-4v-1 1zm5 0v1-1h-2v-1h-1v-1h1v1h1v1h1zm-519-45h-2 2zM367 132zm0 0v-1 1zm192 143v-1h1zm3-5h-1 1zm28-167h-1v-1l1-1h1v-1 1h-1zm7-5v1h-1l1 1h-2v1h-1 1v-1h-1v-1h1l1-1h1zm1 0h-1 1zm-3-3v-1zm1-2zm113 196v1-1h-1zm-391-81h1-1v1-1zm2 0v1-1h-1 1zm-1 0zm525 47h-1v-1l1 1zm-2-3zm-2-1v-1zm0 0h-1v-1h1v1zm-1-4zm6-1h-1 1zm0-1zm8-6l-1 1v-1zm-1-1h-1 1zm-151-82v1-1zm222 144h-1 1zM5 340v1l-1-1h1zm-1 0H3v-1 1h1zm3-8h1zm346-88h-3 1v-2h2v1h-1 1v1zm0-3l1-1v1zm219-69v-1l1 1zm1-3zm45-17h-1 1zm283 48h-1 1zm8 6l-1 1v1-1h-1v-1h-1v-3l2-3v-1h1v-1h2l1 1h-1v3l-1 1v2h-1zm-249 93h1v-1 1h-1zm0-5v1l-1-1v-2 2h1zm1-4v1l-1 1v-2h1zm-24-156h-2v-1l1 1zM64 217h-1v-1l-1-1v-1h1v-1l2 1v1h1v1h-2v1zm-4-5h-1v-1h1zm1-1h1v1h-1v-1h-1 1zm-2-1h1v1h-1l-1-1h1zm-2-1v1h-1l-1-1h2zm-7-1h-1 1zm2 0h-1v-1h1v1zm237-8zm1 0zm0 0v-1l1 1zm1-1v1-1h1zm1 0zm1 0zm0-1v1-1h1zm-5-4zm0 0v-1 1zm-46 1l-1-2v-1l1 1v2zm0-3h-1v-1h1v-1 1zm52 0v-1h-1v-1zm-51-2h-1 1v-1zm0-1h1v-1 1zm6-3h-1 1v-1 1zm10-1h-1v-1l1 1zm21-1l-1 1v-1h1zm-13 0zm1 0l-1-1h1v1zm-2-1zm2 0zm2 0h-1l1-1zm20-3v1-1zm-113-5v-1 1zm-3-1v-1zm3-1h1-1zm-5-2zm-1 0zm2 0h1-1zm132-2zm0 0l1-1v1zm2-2v1zm1 0v-1 1zm0-2v1-1zm1-6v-1h1-1v1zm3-5h1zm0-3h1-1zm5-1h2-2l-2 1h-2 1-1v-1h4l1-1v1zm8-1h-1 1zm-1 0h-1v-1h1zm-3-1zm0 0zm8-8zm2 0h-1v-1h1zm-167-9h-1 1zm1-1zm0 0l-1-1h1zm-1-2h1v1-1h-1v-1h1l-1 1zm0-1h-1 1zm-1 0v-1 1zm1-1h-1 1l-1 1v-1zm923-8h-1l-1-1h1v1h1zM0 117zm1 0v-1 1zm-6 0v-1l1 1zm3 0h-2 2v-1 1zm1 0h1-2 1v-1h1zm1086-1h-1 1zm3 0h-1 1zM1 116zm1080 0v1-1h1zM9 116h1-3 1zm3-1zm-7 1H3h3v-1h1-1 1v1H6zm1065-1h-1 1zM17 114h1-1zm3 0v-1zm1047-1h1l1 1h-2v-1h-1 1zM26 112h-1v1h-2l-1 1v-1h1l1-1h1-1 1v-1h1v1zm5-1v-1 1zm-1-1h1l-1 1h1-1l-1 1h-3 2v-1h2-2v-1h2zm2 0h-1l1-1v1h1zm1 0v-1h1-1zm9-1l-1-1 1 1zm1-2zm-4 0l1 1h1-4v1h-2v-1h1v-1h3zm13 0zm0-1v1h-1v-1h1zm86 1h-1v-1zm-87 0h-2 1v-1h1-1 1v1zm82 0h1v1h-1v-1h-1v-1h-1 1l1 1zm-84-1zm-1 0h1-1v1-1zm84-1l-1 1-1-1h2zm-68-1v1h-1v-1h1zm75 1v1h-3v-1h1v-1h1l1 1zm-8-2h1v1h2v1h1-1v1-1l1 1h1v2h-1v-1h-1v-1 1h-1v-1h-1 1l-1-1h1-2v-1 1l1-1h-2 1v-1zm2 0h-1 2zm2 1h-1v-1l1-1v1zm-69-1v-1h1zm2-1h-1 1zm-48 0h1-1zm113 0v-1l1 1h-1zm-3-1v1-1 3h-1v-1 1-2h-1v-1h2zm1 0h2v1h-1v-1 1h-1v1-2h-1zm-60-1v1h-1v-1h2zm-52 0h-1 1zm108 0v1l1 1v1h-1v-1h-1v-1h-1 1-1v-1 1h-1v-1h1v-1l1 1zm-56-2h-1 1zm1 0h1v1h1-2v1h-2v1h-1 1-1v1h-1v-1h1-1v-1h-1v1h1-1v-1h-1v-1h3v1-2l1 1v-1h2zm52-1h1v1h-1 1v-1h1v1h1-2l1 1h1-2l-1 1v-1h-1l-1-1v-1h2zm5 0h-1zm-2 0h2v1h1v1-1h-1v1h1v1h-1l-1 1v-2h-1v-2zm-54 0h2-2l-1 1h-2l1-1h1v-1h1v1zm0-1zm-26 0l1-1zm50-4h1zm-10-1v1h-1v-1h1zm1 1h-1 1v-1h2-1v1h-1zm-57-2l1 1h1v1h-5v-1h-1 3v-1l1 1v-1zm65 1h-1l1-1zm-4-1h1l-1 1h-1v-1zm-4 0v1h-1v-1h1zm-14 1l1-1v1zm-63-1h1l1 1h-1l-1-1h-1 1zm76-1h-1 1zm-72-8h2l1-1h1v1h4v1h-2v1h-1v-1h-1l-1-1h-4v-1h1zm16-8l1-1zm546 74zm-225 89zm0-1zm0 0v-1 1zm1 13h-1l1-1v1zm0-1zm-13-5h-1v-1l1 1zm4-1v1h-2v-1h2zm-2-22h-1 1zm0 0v-1zm1-1h-1zm-2 3h1-1zm0-2zm0 0h-1 1zm524 29zm-8-5v1l-1-1h1zm9 0h1zm0-31v-1 1zm0-1h-1zm2 0h-1 1zm0-1l-1 1v-1h1zm190 127zm-1-2h-1v-1zm-1-2h-1v-1h1v1zm-2-4h-1zm0-3h-1zm-1-1h-1v-1h1v1zm-2-1v1h1-1v1-1h-1v-1zm-1-1zm3 1v-2 2zm-1-2h-1 1zm1 0v-1zm-5-2l1 1h1-1 1v2h-1l-1-1v-2zm3-1v-1zm0-2v1l-1-1h1zM-5 319v-1 1zm6-3v-1 1zm14 2h-1l-1-1h2v1zm-3-2h1v1h-2v-1h1zm691-80h2l1 1h-4v-1h1zm-33-3h-1 1zm0-1h-1 1zm-1-4zm-14 190h-1 1z" fill="url(#a)"/><path d="M579 293h11v3h1v2h1v1l1 1h2v-1h3v-1h1v-1l1-1h2v1h4v8l1 1v3h5v-1 7h-6v10l1 1h1v1l1 1h1v1h-2l-1 1h-8l-1-1h-2l-1-1h-14l-1-1h-2l-1 1h-1v-1l-1 1m1-38h1v-1h2-1v1h-1v3h-1m22-146v-2h3v1h1v2h-1l1 1v1h1v1l-1 1v1h-1v1h-1m111 45h-2l1 1h-1 1v1h-1 1v1h-2 1v1h-1v3h-3l-1-1h-5v-1h-1v-1l-1-1v-1m13-6h1v2M329 443v-7m1-1h-2v-1h-9v-1h-1v-3h-3v-2h-1l1-1h-1v-1h2l-1-1h1l1-1v-1h1v-1h-1v-1h1v-1h1v-2h1v-2h-1 1v-2h1v-1h-1v-1h-1 2v-1h1-2v-3h-1v-1h1-1v-3h1v-1h-1v-4h1v-3l1-1v-1l1-1h1-1v-3h-1 1v-1h-1 1v-1h-1l1-1v-1h1v-1h1v-2h-1 1v-2l1-1h1v-1h-1v-1l1-1h-1v-3h-1v-2l-1-1v-1h1v-1l1-1v-1h1-1v-3h1v-2l1-1v-1h1v-1l1-1h1v-2h-1l1-1v-2h-1l1-1v-2l1-1h2v-1l1-1v-3l1-1h1v-1h2v1h4v2l1-1v-1l1-1h3v1h1v1h1v1h1v1h1v1h1l1 1h2l1 1h1v1h1l2 1h1l1 1h1v2h-1v1h-1v2h-1v1h2l2 1h3v-1h1v1h1v-1h1v-1h1v-1h1v-3h2v1h1v3l-1 1h-1v1h-2v1h-1v1h-1v1h-1v1h-1v1h-1v1h-1v1h-1v1h-1v1h-1v4h-1v2m327-216h-1v-1h-1v-1h1l-1-1h1v-1h-3v1h-2v1h-2l-1-1v-1h-2v-1l-1 1-1-1h-2l-1-1h1-1v-1h1v-1h-1v-1h5v1h1v2h1v1h-1 1l1 1h1v2m-5-6h1v-1h-1v1m-95-24l-1-1h-1v-1h-2v-2h-1v-1l1 1v-1h2v-1h3l1-1h1v1h1v-1h1v1h3v1l1 1h1v-1h2v1h2l1 1 1 1h-3v1h-1v1h-2v3h-2l1 1h-1v1l-1 1h-1l-1 1-1-1v1h-7v-1h-2v-1h-3v1h-2v-1l-1 1h-1v-1h-1v-1h2v1l1-1h4l1-1h2v1h1v-1h-1 1l-1-1 1-1h2v-1h1v1h1v-1h2v-1h1l1 1h4v1m89 29h-2v-1h-2v-1m1-5v-1h1l1 1h2v1-1h1-1v-1h-1v-1h2v1h1v1h3v-1h1v-1m-58 132h3v-1 1h1v3h-1v2h1v1l-1 1v1h-1v1h-1v1h-1v-1l-1-1v-4h1v1h1v-2h2m-75-162h1v2h-1v1h-1 1v1h-1l-1-1h-1v-1h-2v-1h-3v-1h-2v-1m2-1h2v1-1h5v1h1l-1 1m-12 136v-9h-1v-3h-1l-1-1v-1h1v-1h1v-1h2l1-1v-1h1v-1h1l1 1v1h1v3h1v1h-1v2h-1v2h-2v5h1-1v4m-5-15h-1v1-1h-4v1-1h-7v2l1 1h-1l1 1v1h-1v-1h-4v1l-1-1h-1v-1h-1v-1h-1v-2h1v-3h2v-2h1v-2h1l1 1h1v-2h1v-1h1v-1l2 1v-1h1v-1h2v-1h4v3l1 1h1v1h1-1v1l1 1h3v1h-1l1 1v1m265-32v-2h-1l1-1h-1v-3h-1v-1h-1v-1h1v-1h2-1v-1h-1v-1h-1v-1h1v-1h1v1h1v-1 1h1v1h1v-1 3h8v1h1-1v1h-1v1h-2v4-1l1 1v-1l1-1h1v2l1 1v4h-1v-1 2m-196-64h-2l-1-1-1 1h-2v1-1 2h-4l-1-1h-2l-1 1h-2v-2l-1-1h-1 1v-2h1v-1l-1-1-1-1h1v-1h1v1h6l1 1h1v-1h2l1-1h3l1 1h2m-33 3v-1h-1v-1h-1l-1-1h-1v-1l-1-1v-1h-1v-1h9v1h2v1h-1v1h2v1h-1 1v1h-2v1h-1v1h-1l1 1h-2v-1h-1m30-45v1h1v1h-1 1v1h1v2h4v1h1v-1h1l1 1h1v1l1 1h-1v1h1v1h1l1 1v1h2l1 1h-1v1h-2v-1h-1v2h1l-1 1h1v1h-3v1h-1v1h1-5v-1h-1v1h-1v-1h-2v1-1h-5l-1-1h-4l-1 1h-2v1-2l-1-1h1v-1h1v-2l-1-1v-1h5v-1h1v1h1v-1h-1v-1h1v-1h2v-1h1-1v-1h1v-1h2v1-1h1l1-1M267 226h-1v-4l1-1v-1h1v-1h1m65 126h-2v-1l-1-1v-3h-1v-1h-1v-1h1-1v-2h1-1v-1l1-1h-1v-1h-1v-3h-1v-2h-1l1-1 1-1v-1h1-1v-1l-1-1v-1h1v-1h-1v-1h1v-2h1-1v-4h1v-2h-1v-1l-1-1v-1l-1-1h1l1 1h2v-1h2v-1h2v-1l1-1h4v5h1v2h2v1h3v1h2v1h2l1 1h3v1h1v2h1v2h-1l1 1v3h6l-1 1v1h1v1l1 1 1 1v2l-1 1h1-1v2h-1l1 1-1 1v-1l-1-1-2-1h-4l-1 1h-3v2h-1v2l-1 1v3m-22-35h-1v1h-1l-1-1v1-5l-1 1h-1v1h-3v-2h-3l1-1v-1h-1v-1h-1v-2h-1v-2h1-1l1-1v-1h2v-1h-1v-1h1v-2l1-1h1l1-1h2v-1h4v-1l1-1v-5l1-1v-2h-1v-2h-1v-3h3v-1h-2v-2h5l-1-1h1v1h1v-1h2v2h1v1h1v1h1l1-1h1v1-1h1v-1h3v-2h2v-1h-1l-1-1v-3l-1-1h-1v-1h2v1h3v1h1v-1h1v-1h3v-1h2v-1h1v-1h-1 3v2h-1 1v1h1-1 1v2h-1v5h1v1h1v1h2l1-1h2l1-1h4v-1h-1 1v-1l1 1h1v-1h1v1l1-1v1h1l1 1v-1h4v-1l1-1v-1h1v-2h1m-5 115h-1v-2h1v-1h1-1v-1h-1v-1h-1v-1h-1l-1-1h-2v-1l-1-1v1h-1v-1h-1v-1l-1-1h-2v1l-1-1m9-14l1-1v-4h-3v-1h-1v-4h-2v-1l-1 1h-4v-6h-1m530-77v2-1h-1v-1 2l-1 1v-1h-1v-1m-19-52h-3v-1h-1v-3h-3l-1-1h-2v1h-1v1-1h-1v1l-1-1-1 1v-1 1h-3v-1 1h-1v1-1h-1v1-1 1h-1v1h1v2h-2v-1h-4v-1h-1v-1h-1l1-1v-2h-2v-3h-3v1h-1l1-1h-1v-2h1v-1h1v-1h1v-2h1-1l1-1v-3h-1v-1 1h-1v-2l-1-1h-1l-1 1v-1h-3 1v-2h-1v1-2h-2v1h-3v-1 1h-1l-1 1h-2v1h-1v1h-1v1h-3v1h1v2h-9l-1-1h1v-2h1v-1h2v-1 1h3v1l1-1 1 1M632 323h-4v1h-1v2h-2l-1 1-1 1v1h-1v1h-4l-1-1v1l-1-1M140 108v-1h1m193 30h-1v-1h-1v-5h-1l-1-1v1h-2v-1h-1v1h-1v1h-1v1l-1 1v1l-1 1v1h-1v-1 1h-11v1l-1-1v1h-1l-2 1-1 1h-1v1l-1 1h-7v1h1v1h-1l-1 1h-2v1h-4l-1 1h-1l-1 1h-1v-1h-1v-1l1-1h1v-2h1v-3l-1-1v-3h-2l-1-1v-1h-2v-1h-2v-1l-1-1h-2v-1h-2l-1-1h-1l-1-1h-2l-1-1-1 1h-10v-1h-3v-1h-1l-1 1h-1v-1h-2l-1-1v-1h-1v1h-84m-22-21h-1l-1-1h-2v-1h-2v-1h-1 1-1v-1h-1v-1l-1-1h-1v-1h-1v-1h-1v-1h-2v-1h-1l-1-1-1-1h-1v1h-2 1-1v1h-1l-1 1h-1v-1h-1l-1-1h-1l-1-1h-1v-1h-6V62m463 70v1h-1v1l-1-1-1 1v-1h-1v1h-1l1 1h-1v-1h-1v-1h-1v1h-1v1h-3v-2h-2v1h-1 1v-2h1v-1h1v-1h5v-1h2l1 1M324 331h1l1-1v-1l1-1m441-167h1-1v-2l-1-1h1v-1h-4v-1h1-1v-2h1v-1l1-1h2v-1h2v1h2v-1 1l1-1v-1h4l1-1 1-1h2v-1h3v-3h1v-1h1-1l1-1h-1v-2l-1-1h1v-1h-2l1-1h4l1-1v1h2v-3l1-1 1-2h5v1h1v-1h2v-1l-1-1v-1h1v-1h2l1-1v-1h3v1h1v1h2v1h3v1h2v1l1 1 1 1v3h-1v1l1 1h6l1 1h2l1 1h1l1 1h1v1h1v1h1v1h1v1h5l1 1h11v1h2l1 1h5v1h2v-1h2l2-1h3l1-1h7l1-1h1v-1h1v-1h3v-1l-1-1h-1v-1h1v-1l1-1h2v1h5v-1h1v-1h4l1-1 1-1v-1h4l1-1h3l1 1h1v-2h-1v-1h-1v-1h-2v-1h-2v1h-7v-1h1v-2h1v-1l1-1v-1h3l1 1 1-1h1l1-1h2v-1h-1l1-1v-1h1v-1h1v-1h1l1-1v-2h-2l1-1h1l1-1h6v-1h2l1 1h2v1h1v-1l1 1h2v1l1 1v1h1v2h1v1l1 1v1l1 1v1h1v1h1l1-1v1h1-1 3l1 1 1 1h1v1h1v1h-1l1 1h5v-1l1 1v-1h2l1-1h2v1h1-1v1h1l-1 1h-1v2l-1 1v1h-1v2h-1v1h-4v-1 1h-1v1h-2v1h1v5h-2v1h-1v-1h-1v1h-2v1h-1v1h-3 1v2h-1v-1h-3v-1l-1 1v1h-2v1h-1v1h-2l-1 1h-1v1m-31 53h-1m-76-14l-1-1v-2h-1v1h-4l-1-1h-1v1l-1-1v1-1h-3v-1h-1v-1h-2v-1h-2v-1h-1v-1h-2l-1-1v-1h-2l-1 1h-1v-1h-2v-1h-1m0 0v-1h-1m-1 0v-1h-1v-1h-1 1v-1h-1v-2l1 1h1m0-1v-1m0-1h-1v-3h-1v-1h-1v-1l-1-1m-30 35h2v-1h5v-1h1v1h1v-3h-1v-2l-1 1v-1h-1v-2h-1v-1h-1v-1h1l1-1v-1h1v-1h1v1h4v-2h1v-1h1l1-1v-1h1v-2h2v-1l1-1 1-1v-3h2v-1h-2v-1h-1v-1h-1v-1h1l-1-1 1-1h-1v-1h-1 1v-1h5v1l1-1h3v-1h1v-1h2-2v-1h-2v-1h-1v1-1h-1v-2h-2v-1h-2m-237 97h-1m2-13v4l-1 1v2l-1 1v2h1v2h1v1h-1m-14 3v-5h-1v-1h-1l-1-1 1-1v-1l-1-1h1v-2h1-1v-1h2-1v-3h-1v-2h1v-1h1v1h2v-1h1v-1 1-1h1v2h1v-1h1m66 25v2-1h-4v-1h-15m-4-8h1v-3h1v-1h1v-1h1v-1h2v-1l1 1h1v1h1v-1h1v-2h1v-2l1-1h1v-2l1-1v-1l1-1v-1l1-1v-1h1l1-1h1l-1-1h1v-1l-1-1h-1v-2h1v1h1v2h1v5h1v1h1l-1 1h-1v-1 1h-1l-1-1v1h-1v1l1 1 1 1h1v1l1 1v1h1v1h-1m37 7v1h1v1h1v1h1l1-1h1v1l1-1h1v1h1v1h1v1h1v4h2v1h-1v1l-2 1-1 1h-1v5h-1v3h-1v2h-1v1h1m1 6v6h1l1 1v1h1v2h1v1h-3l-1 1h-2v2h-1v4h1v1h-1v3l1 1h1v1h1v-1h1v4h-1v-1 1h-2v-2h-1v-1h-2l-1-1v-1h-1v-1 1h-1v1h-1l-1-1h-3v-2l-1 1h-2l1-1h-1v-1h-1m-33-19l1 1 1-1h1v-1h1v2h1l1-1 1-1v-1h2v-2l1-1v-1l-1-1h1v-1h1v-2h1v-1h1l1-1v-2l1-1v-5l1-1v-1l1-1v-2m-23 23v-1h2v-2h-1v-2h3v-1h1v1h3v1h1v-1l1-1v-5h-2v-2h1v-1h1v-2h-4v-2h1v-1m-259-29h-2v1l-1 1h-1v1l-1 1v3h-1v1h2v2h1v3l1 1v1h3l1-1 1 1h1v1h1v1h7v1l-1 1v5l1 1v1l-1 1v1h1l1 1v3h1m-10 17v-1h-2v-1l1-1v-1h1v-1h-1v-1h-9l1-1h-1v-1h-1v-1h-1v-1h-1v-1h-1v-1h-1v-1h-3v-1h-5v-2h-2l-1-1h-1m3-18v-2h1v1l1-1v-2h-1 1m-16-3h-1v3h-1v1h1m-9-9h2l1 1v-1h1l1 1h1m360-74h-4m-56-57v2h-1l1 1h1v1h-1 1v3h1v1l-1 1m-22 10v-2l1-1v-1h1v-1h-4l-1-1h-1v-1h1-1v-1m-1-2v-1h1v-2h-1 1v-1 1h1l1-1v-1h-1v-1h1-1 2v-2m4-5h2v1h1v-1h1m102 133v1h-4v1-3l1-1v-1h2v-1h1m-351-16v-1h-1v-1h1v-3m245-53v1h-1v1h1-1v3h1l-1 1v2h-1l-1 1v1l1 1v1h1v2h2v1h1v3l1 1v2h-1 1v1l1 1v9l-1 1v1l1 1 1 1v2h3l1 1h1v2h1l-2 1-2 1-1 1-2 1-1 1-2 1-2 1-1 1h-1l-1 1h-1v1l-1 1h-1v1h-1v1h-4l-1 1h-3l-1-1h1v-2h-3v-1h-2v-1h-1v-1l-1-1h-1l-1-1-1-1h-1l-1-1-1-1h-1l-1-1-1-1h-1l-1-1-1-1h-1l-1-1-1-1h-1l-1-1h-1v-1h-1l-1-1h-1v-1h-2v-1h-1l-1-1h-1l-1-1h-1v-1h-2v-5h2v-1h1l1-1h1v-1l1 1h1v-1h3v-1h1l1-1 1-1h2v-1h1-1v-2h3v-1h5v-1h1l-1-1h-1v-5l-1-1h1-1l-1-1M309 275h-1v1h1v2h-1v2l-1 1v1h-2v1h-2v1h-2l-1 1v1-1l-1 1v3h-1v1h-2v-1h-1v-1h-1l-1 1v-2h1v-2m349-106h1v3h1v2l1 1m6 23h-17v-1 1h-20v-25h-1 1v-4h1v-1m52 59v-1h-1v-1l-1-1h-1v-1l-1-1h-1l-1-1h-3v-1h-1v1h-2v-1h-1l-1 1v1l-1-1h-2l-1-1v-1l1-1v-2h1v-3h1l1-1h1v-1h1l1-1m-123-78v1h1-1 1v1-1 1h4v1l1-1v1h1v-1h2v1m1 0h-1 2v1-1h1l1 1v-1h2m-33 16v-1l1-1h1v-1h-1v-2h1-1v-2h-1 2v-5h1l1-1h-1v-1h-5v-1h-1v1h-1m113-54v1h-1v1h-1v3h1-1v1h-4v-1h-6m57 143v1l-1 1h1v1l1 1v1h1l1 1 1 1h2l1 1h2l1 1h2l1 1h3-1l-1 1-1 1v1h-1l-1 1-1 1-1 1-1 1-1 1-1 1h-5v1h-1v1h-3v1h-3v-1h-1l-1 1h-1v1h-6l-1-1-1-1h-1v-1h-3l-1-1v-1l-1-1v1-1h-1v-2h-1v-2h-1v-1h-1v-1h-1v-1h-2v-1l1-1h2v-4l1-1v-2h2v-3l1-1v-1h1v-1h1v-1l1-1v-2l1-1M613 74l-1-1h-1v-1h1v-2h-1v-1h1-1v-2h-1v-1h-4v-1h-2l-1-1h-1 2-1l1-1h1l1 1 1 1h10v-1h1v-2h1l1-1h5v1h3l1 1h-1l-1 1h1-2v1h1l-1 1 1 1h2l1 1h1l-1 1h-1v1h-1v1h1v1h1v1l1 1h-1v1l-1 1h1-1l1 1h1v1l1 1v1h-1l1 1h1l1 1h1v2h-1v1h-2v1h-2v1h-1l-1 1h-1v1h-2l-1 1M372 268h1v-3h1v-2h-1v-4h1m183-135h1m2 11v1h1v1h-2l1 1v2h2v1m6 131h6v-4m-54-158h-1v-1h-2v1h-1v-1h-2v-1h2v-1h1m155 42h-1l-1-1h-4m-5-6h4v1h5l1 1h2v1h1l1-1h1v1-1l1 1h2v1h-1 1v1h2m-142 94v2h1v3h1v1h-1v1h1-1v1h1v6h1v1h1m-50-14v-1l1-1h1v-1h2v-1h-1 1v-2h2v1h5v1h2v1h1v-1h3v-1h2v3h1v1h1v2h1v1m-2 8h-1v1h-1v-1h-1v-3h-3v1h-1v-1h1v-2h-1v-1l-1-1v-1h-2v1h-2l-1 1v1h-2m-10-14h6l1 1h2-1l-1 1v-1h-4v1h-3m0 2h4l1-1h4m106-86h3v-1h3m10-1h1v1h-1v1h1-1v1m-350 76l-1 1-1 1h-1v1h1l-1 1h-1v1h-1v1m-7-2v-2h1l-1-1h1v-2h5v-1h-1v-1l-1-1h-1v-1h1v-1h6m97 37v2h-2v4h1v1h1v2h1v1l1 1m-13-10v-1h-1l-1-1h1v-3h3v-1h-1l-1-1h1v-1h1l1-1v-1m-71-20h-1l-1 1h-4v1h-1v1h-1v1l-1-1-1 1h-1v1l-1 1h-1m-1-1v-1h-1v-1h-1v1-1h-2v-1h-1m329-86h1m-16-9h3l1-1v1h2v-1h1v-1h1v-1h3v1h1v1h5v1l1 1h-1v1m-6-10h1v1h4v-1h5v-1h6v1h2v1h-2v1h-1v1h-1v1h-1v2h-7v1m-8-2v-1h-1m330 172h1v-1m2-1v2m49-20v11h-1v1h1v7m-72-41h1m-25 7v1l1 1 1 1h5l1-1v-1h2v1h4l1-1v1-2h1v-1h1v-2h1v-4h6m-111-79h-2v1l-1 1v2l1 1v-1 1h2v1h1v1h4v1h5l1 1 1 1h2v1h7v-4m28-1v1h-1v1l1 1h-1v-1h-1l-1 1h-1v1h-1l-1 1h-1v1h1v1h-1v1h-1v3h-1v2h-2l-1-1v4l-1 1 1 1h-1v1l-1-1v1m-118-47h2v-1h1v-1h4v-1h3v1h2l1 1h3v1h1v1h2v1h3v3m0 17v-1h1l1-1v-2h-3v-4h-1v-1l1-1v-1h-1v-2h1v-1h1v-3h1v1h2v1l1-1h2v-2h3l1-1v-1h1v-2h3v-1l1 1h5v1h2v-1h2l1 1v-2h3l-1-1h1v-1h1l1-1v1h1v1h1v1h-1v2h1v1h1v-1h2v-1h7-2v1h1-6v1h-2l-1 1h-1v2h1v2h-1v1h-1v2h-4l1 1 1 1-1 1h-2v3l-1 1h-3l-1 1h-1 1l-1 1h-1v-1h-1v1h-1v3h-1 1v1h-3l-1 1h-10l-1-1h-2l1 1v1h1v1h1v1h2v1h1v3h1v2h-3v1h-1v1h-1v2m-40-15v-1h-1v-2h-1v-3h-1v-1h-1v-1h-2v-1h-1v-1h-1v-1l-1-1v-2h1v-1h1v-1h-1v-1h1-1v-1h-1l-1-1v-1h-1v-2h-1v-2h-1l1-1h-1v-3h1v-2l1 1m10 29h-3v1l-1 1v1h-6l-1-1-1-1h-1l-1-1-1-1h-1l-1-1h-1v-1h-1l-1-1h-1l-1-1h-1l-1-1h-3v-1h-1v-2l-1-1h1l1-1h1l1-1h2v-1h1l1-1v-5l1-1h1l1-1h1v-1h5v1h1v-1h1v1m-30 12h1l1-1h1v2h-1v1h-2v2h1-1v1h1v2l-1 1v3m-2-5v-2m-63-45h-1v1h1-1v1h1-1 1v1m78 41h-2l-1 1h-2l-1 1h-1l1 1h1v1h1v1h-1v1h-1l-1 1h-1l-1 1-1 1h-1l-1-1h-1m1-6v-1h1v-2m0-1h1v1h3l1-1h1l1-1h1l1-1m117-5v-2m10-20l-1-1h-2v-1h-13l-1-1h-3v1l-1 1h1-3l-1-1h-3l-1 1v1h-1v1l-1-1v1h-1l-1 1h-2v1h-1v1h-1l1 1h-2v-2h-4v-1h-1v-1h-1v-3h-1v-1h-1v-1h-1l-1-1v1h-9v-1h-1l-1-1v-1h-2l-1-1h-1l-1-1h-1l-1-1h-4l-1 1h-4v12h-2v-1h-1v-1l-1-1h-5l-1 1h-1m-10-14h-2v-1h2-1v-1l-1-1-1-1h-3v-2h-2l1-1v-1h1-1v-2h1v-1h1v-1h1l1 1 1 1 1-1v-2h2v-1h2v-1h1l1-1h2v1h1v-1h2v1h4v1h2v1l1 1v-2h1v1h4v-1h3l1 1v-1h3v1h3v1h1v-1h5v-2h-2l-1-1h-1v-1h-1 2l1-1v-2h4-1l-1-1h-1 1v-1h-2 1v-1h6v-1h6v-1h6l1-1h3-1v-1h8l1 1v1h1-1v1l1 1 1-1h2v1h4l-1 1v1l1-1h2v1-1h2l1-1h1l1-1h3-1v1l1 1h1l1 1h1v1h1l1 1 1 1v1l1 1 1 1 1 1v1h1v-1h1v-1h1v1h2v1h4v-1h2l1 1h1v1h1v1h2v1h1l1 1h2v-1h1v1h1v1h1M667 263l-1 1-1 1v1h-1v12h1v1h1v1m-7 9h-1v-1h-1l-1-1h-1v-1h-1v-2h-1l-1-1h-1l-1-1h-1v-1h-1l-1-1h-1l-1-1h-1l-1-1v-5h1v-1h1v-2h1v-3h-1v-1l-1-1v-1l-1-1v-2h1l1-1 1-1 1-1m117-104h-1v1h-5v-1h-1 1-2v1h-1v-1h-4v-2h3v1h1v-1h4v-1h1v1-1h1l1-1h-2v-1h-2v-1 1h-3v-1h-2 1l1-1h1v-1h1-1m-1 7h-1 1m2 0h-1 1-1v-1 1h1m97 86h-1v-2l-1-1v-3h1v-1l1-1h6v1-1l1 1h2v-1h1v-1l1 1h2v-1 1-1h1l-1 1v2h1v2h-1l1 1v1h-1v1-1h-1v1h-2v1h-2v1l1 1v1h-1v-1l-1 1h-1v1h-2m68-83v-1h1v-1h4v-1m-331-12v-1h2v-1h2v1l1 1v1h-3v1m85 41h-3v-2h-3m170 21h1v1h1v1-1 1h1-1v1l1 1 1 1h1v-1h2v1h1-1v1h1l1 1h-1v1h-2v1h-1 1l1 1h1v1h1v1h1v1h1v1h1v1h1v1l1 1v1h1l1 1v1h-1 1v1h1v1h-1l1 1m-8 1h1v-1l1-1h-1v-1h1v-1h-1v-1h-1v-1h-1v-4h-1l-1-1v-1h-3 1-1v1h-1v1l-1-1h-1v-1 1h-1l-1 1-1 1v-1h-1 1v-6h-2v-2h-1v-1l1-1 1-1 1-1m-199-40h1v1h1v1h-1v1h-1v1m-145 81v-1h1v-1h1v-1h1v-1l1-1m107-41v6h-3v1h-1l-2-1-1-1h-2l-1-1-2-1-1-1h-1l-2-1-1-1-2-1h-1l-2-1-1-1h-2l-1-1-1-1-1 1h-1l-1 1h-2l-1 1-1-1v-1h-2l-2-1h-1m-8-20v-1h2v-4h1v-1h2v-1h1v-2m53 193h-1l-1 1v1h-1v-1h-1v-1h-1v-2h1v-1h1v-1h1l1-1h1v1h1v1h1v1l-1 1v1h-1m-16-257l-1-1h-2v-1l1-1h-3l-1-1h-1m-1-2l1-1h13v1h2v1h1m-108 85v2h-2v1h-3l-1-1-1 1h-1v1l-1 1h-1v3h-1v1l-1 1h-1v1l-1 1h-1v1h-1v4h-1v1h-1v1h-6l-1 1m-306-34h1l1-1h5v1h2l1 1h3l1 1h2l1 1h10v-1h6v1h1l1 1h1v1h1v1h1v2h1v1h1l1 1h3v-2h4l1 1h1v1l1 1v1h1v1l1 1 1 1v1l1 1v1h1v1h3l1 1h1m363-50h2m-55 71v8l-1 1v1h-1v1h-7l-1 1h-2m-36 8v-3h-2v-4h-1 2v-2l1-1v1h1l1 1v-1h4v-1 1h12v-2l1-1h-1v-3l-1-1v-8l-1-1v-7l-1-1v-5h5m321 14h-2v1h-2v1h-3v3h-1v1l1 1v1l1 1v1h1v2h1v1h-1v2h-1v2h1v1l1 1h1v4l1 1v3l-1 1v1h-1v2M598 142v1h2l1 1m206-19h1v-1h3l1-1h1v-1h3v-1h3v-1h7l1 1v1h6v1h1v-1 1l1-1v1h2v-1h2v-2h-1v-2h1v-1h1l1-1h2l1 1h4v1h3v2h1v1h2l1 1h3v-1h7l1 1h3v2h5v1h4l1-1h5v-1h1l1-1h2v-1h1l1 1h2v1h1v-1h2v1h1M639 357h-2v-8h-1v-2h-1v-4l1-1 1-1 1-1v-2h1v-1l1-1v-1h-1v-3h1v-4l-1-1 1-1h-1l-1-1h-2l-1-1h-3v-2l-1-1h1v-1h3l1-1h2v-1h3v1l1 1v-1h2v1l1 1v1h-1v3h1v1h1v1h1v-1h-1l1-1v-1h1v-2l1-1v-1l-1-1-1-1v-1h-1v-1h-1v-1l-1-1v-3h1v-1h5v1h1v-1h1v1h2v-1h1v-1h1v1h1l1-1h2v-1h2v-1h1m-162-77v-1h-1v-1h-1v-1h-1v-1h-1l-1-1-1-1h-3l-1 1h-1v-1h-1v2l-1 1m-1-16v-1h12v-5l1-1h2v-8h10v-4m128 126v-1h-1v-1h1v-2l1-1v-5l1-1h-1v-2h-1v-1h2v1h1v-1l1 1v1h1v4h1m199-55h2v1h1v2-1h2l1-1m-251 95v11h-1v1h-7v-2h-2v1h-1m-4-157v4l1 1 1 1h-1l1 1 1 1-1 1v6l-1 2v1l-1 1-1 2-1 1-1 1-1 1v1l-1 1v1l1 1h-1l-1 1h-1l-1 1h-1l-1-1h-5v1h-1l-1 1h-2l-1-1-1-1h-1l-2 1h-1l-1-1v-1h-6l-1 1-1 1v1l-1 1v2m31-6v1h1v1m51-173v1l-1-1h-1v1h-2l-1 1m-26 0h-2 1v1l-1 1h1-7l1 1h-4l-1 1-1 1h-1 1v1l-1 1-1 1h-1v1h-3l1 1h-1v2l-1 1-1 1h1v1h-4v1h-1l-1 1v3l1 1-1 1 1 1h1v1h-1v4h-2v3h-1m127 129v-1h-1v-2h-1v-2l-1-1v-1h1v-1h3v-1h3l1-1h1v-2h1v-3h1v-2h-1v-1m-109-97h10m2 9l1 1 1 1h-1 1v1h-2v1h-1l-1 1h-1v2h1-3v-1h-6v1h-1v-1l-1-1v1h-1m341 21v1m-242 54h-2v-1m-69-63v-5h-1l-1-1v-1h-1v-1h-2v-1h5v1h2l1 1v-1 2h1v2h1v1h1-4v1h1-1v1h-1v1h-1 1v1h2v-1h1l1 1m-22 3v-2h-1v1h-1l-1-1h-1 1-1v-1h1-2v-1h-1 1-1v-1h-1v-1m8-6h2l1 1 1-1v1l1-1v1h3l1-1h2m36 3v-1l1-1h4v-2h-1v-1h1-1v-1h2v-1h-1 1-1v-1 1l-1-1h-3v-1h-3v-1h-3v1-1h-4v-2h-2l-1-1v-1h-1 1l-1-1v-1h-5v1h-2m62 101h-4l-1 1h-5l-1 1-1 1-1 1-1 1v1h-2v-1h-10v-1l-1 1v2h-1v1m-27 21h-1 1v-2l-2-1v-1h-1v-4h-3l1 1v2l-1 1-1 1v1l-2 1h-2l-1-1h-2v1h-1v1h-1v1l-2-1h-5l-1-1v-1h-1v-1h-2v1h-1v2h-1v2h-1v1m-4-7l1 1 1 1v4h1l1 1v1h2v1h1v1l1 1h1l1 1v1h1-1l1 1v1h2v2h1-2v1l-1-1h-3l-1 1h-5v1h-3v1h-5v-1h-2v-1h-1v-1h-1l-1 1h-1v1l-1 1v2h-6v1h-1v3h-1v-2h-1v-1l-1-1-1-1v-2h-1v-4h-1v-1h1v-1l1-1v-1h1v-1h3v-1h1v1h1v-1h3l1-1h1l1-1v-1l1-1h4v-1h1v-1h1v-1h1v-1l1-1h1l1-1v1h1v-2h-1v-3h-1v-1h-1v-1h1v-3h1v-1h-1v-1h1v-1h1v-2h3v-12m31 47l-1 1h-1v1l-1-1h-1v1h-3v-1 1h-1l-1-1v1h-1m56-23v5l-1 1v1h-1l-1 1v2m-78-126l-1 1v1m30 230v1h-3v-1h-1v-1l1-1v-1h3m12-189v1l1-1v-1h1v-1h4l1-1 1 1h3l1-1h6v-1h1v1m78-1v-1h1v-1h1v-1h-1v-2h-1v-1h-1v-1h4v-1h1v-1h-1 2l-1-1h1v-1l1 1 1-1h2v1h-1v1h2m-46-3h4-1v-2h1v-1h2v-1h1v1h1v-1h-1 1v-1 1h2v1h2v1h1v2h5v1l1 1 1 1v1l1 1h1l1 1h1v1h2v1h2l1 1h2v1h2l-1 1v1M640 304h-1v-1h-2v-1h-2v-1h-2v-1m-1-22h11m-14 65h6m-25-14h2l1-1 2 1h1v1h1v1l1 1v1l1 1v1h1l1 1h1v2h2v3h3v1h1l1 1h-2v1h-2v1h-1v1h-1l-1 1h-1v2l-1 1h-1l-1 1v1l-1 1v1h-4v-1h-2v-1h-2v1l-1 1v1l-1 1h-1v1h-4v-2h1v-1h-1v-2h-1v-1h-1v-9h3v-11h3l2-1h2l1 1h1v-1h3v-1h1" fill="none"/><path class="graticule" d="M-11 550V0m275 550V0m275 550V0m275 550V0M-11 275h1100M20 519V31m30 488V31m31 488V31m30 488V31m31 488V31m30 488V31m31 488V31m30 488V31m62 488V31m30 488V31m31 488V31m30 488V31m31 488V31m30 488V31m31 488V31m30 488V31m62 488V31m30 488V31m31 488V31m30 488V31m31 488V31m30 488V31m31 488V31m30 488V31m62 488V31m30 488V31m31 488V31m30 488V31m31 488V31m30 488V31m31 488V31m30 488V31M-11 519h1100M-11 489h1100M-11 458h1100M-11 428h1100M-11 397h1100M-11 367h1100M-11 336h1100M-11 306h1100M-11 244h1100M-11 214h1100M-11 183h1100M-11 153h1100M-11 122h1100M-11 92h1100M-11 61h1100M-11 31h1100"/></svg>
