<svg xmlns="http://www.w3.org/2000/svg" viewBox="0 0 298.31 401.8"><path d="M0 288.61h18.72v110.45H0zm37.44 0h38.19c8.31 0 15.25.95 20.61 2.74a31.14 31.14 0 0112.73 7.47 25 25 0 016.52 10.72 43.53 43.53 0 011.9 12.73 49.25 49.25 0 01-1.9 13.57 28.61 28.61 0 01-6.52 11.36 33.64 33.64 0 01-12.74 7.68c-5.36 1.89-12.09 2.84-20.3 2.84H55.85v41.34H37.44zm38.08 53.65a40.17 40.17 0 0011.71-1.37 17.09 17.09 0 007.15-3.89 14 14 0 003.68-6.1 29.15 29.15 0 001-8 26.14 26.14 0 00-1-8.1 13.3 13.3 0 00-3.83-5.78 18.75 18.75 0 00-7.25-3.58 42.68 42.68 0 00-11.47-1.26H56.06v38.08zm126.12-53.65v16.1h-51.75v31.24h48.7v16.2h-48.7v46.91h-18.72V288.61zm27.59 76.65c.84 7.26 3.47 12.52 7.78 15.78s10.94 4.95 19.57 4.95a33.32 33.32 0 0010.62-1.37 22.13 22.13 0 006.95-3.68 13 13 0 003.68-5.47 21.13 21.13 0 001.05-6.73 16.87 16.87 0 00-.74-5.16 13.3 13.3 0 00-2.73-4.73 19.17 19.17 0 00-5.37-3.79 40.06 40.06 0 00-8.62-2.52l-14.1-2.63a90.66 90.66 0 01-14.83-3.89 36.1 36.1 0 01-10.94-6.11 23.22 23.22 0 01-6.63-9.25 36.44 36.44 0 01-2.2-13.36 27.26 27.26 0 0111.88-23.56 36.6 36.6 0 0113.26-5.89 73.44 73.44 0 0116.62-1.9c7.57 0 14 .84 19.14 2.63a37.35 37.35 0 0112.52 6.84 30.13 30.13 0 017.26 9.78 44.4 44.4 0 013.36 11.57l-17.67 2.74c-1.47-6.21-3.89-10.73-7.47-13.78s-9.18-4.47-16.96-4.47a43.2 43.2 0 00-11.05 1.15 20.19 20.19 0 00-7.15 3.26 12.52 12.52 0 00-3.89 4.84 14.75 14.75 0 00-1.16 5.68c0 4.84 1.26 8.42 3.89 10.84s7.26 4.2 13.89 5.57l15.25 2.95c11.67 2.21 20.19 5.89 25.66 11s8.21 12.73 8.21 22.51a34 34 0 01-2.53 12.94 26.78 26.78 0 01-7.78 10.31 39.09 39.09 0 01-13 6.94 59.1 59.1 0 01-18.2 2.53c-14.1 0-25.25-3-33.24-9s-12.56-15.07-13.33-27.52z" fill="#fff"/><path d="M45.95 178.65l103.14 59.55 103.14-59.55V59.55L149.09 0 45.95 59.55z" fill="#469ea2"/><path d="M138.53 14.26l-74.9 43.2a21.18 21.18 0 010 4.06l74.78 43.22a17.85 17.85 0 0121.24 0l74.78-43.22a21.18 21.18 0 010-4.06l-74.66-43.2a17.85 17.85 0 01-21.24 0zm103.14 59.17l-74.9 43.71a18.08 18.08 0 01-10.54 18.41l.13 86a18.91 18.91 0 013.43 2l74.76-43.29a18.08 18.08 0 0110.56-18.42V75.39a32 32 0 01-3.44-1.96zm-185.16.49a19.2 19.2 0 01-3.44 2v86.44a17.57 17.57 0 0110.56 18.38l74.78 43.22a19.25 19.25 0 013.44-2v-86.41a17.55 17.55 0 01-10.56-18.41z" fill="#6acad1"/><path d="M149.09 12.89l92.21 53.29v106.46l-92.21 53.28-92.21-53.28V66.06l92.21-53.17m0-12.64L45.95 59.8v119.1l103.14 59.55 103.14-59.55V59.8z" fill="#469ea2"/><path d="M149.83 139.36h-1.48a19.27 19.27 0 01-19.27-19.1v-1.6a19.28 19.28 0 0119.15-19.33h1.6a19.28 19.28 0 0119.27 19.16v1.59a19.31 19.31 0 01-19.27 19.28zm0 79.2h-1.48a19.16 19.16 0 00-16.82 9.82l17.56 10.07 17.56-10.07a19.15 19.15 0 00-16.82-9.82zm102.52-59.55h-.73a19.28 19.28 0 00-19.28 19.15v1.6a19 19 0 002.45 9.33l17.56-10.19zM234.79 49.73a18.94 18.94 0 00-2.45 9.33v1.47a19.28 19.28 0 0019.15 19.28h.86v-20l-17.56-10.08zM149.09.26l-17.56 10.05a19.28 19.28 0 0016.82 10h1.48a19.15 19.15 0 0016.82-9.82zM63.51 49.61L45.95 59.8v20h.74a19.28 19.28 0 0019.28-19.14v-1.6a19.64 19.64 0 00-2.46-9.45zm-16.82 109.4h-.74v19.89l17.56 10.19a18.9 18.9 0 002.46-9.33v-1.5a19.31 19.31 0 00-19.28-19.27z" fill="#469ea2"/><path d="M149.09 239.06V119.84L45.95 60.26v119.25z" fill="#083b54" fill-opacity=".15"/><path d="M252.35 178.41V59.31l-103.12 59.55v119.22z" fill="#083b54" fill-opacity=".05"/></svg>
